<svg id="Assign_Icon" xmlns="http://www.w3.org/2000/svg" xmlns:xlink="http://www.w3.org/1999/xlink" width="36.279" height="30.198" viewBox="0 0 36.279 30.198">
  <defs>
    <clipPath id="clip-path">
      <rect id="Rectangle_35443" data-name="Rectangle 35443" width="36.279" height="30.198" fill="#0b3443"/>
    </clipPath>
  </defs>
  <g id="Group_97450" data-name="Group 97450" clip-path="url(#clip-path)">
    <path id="Path_61241" data-name="Path 61241" d="M14.16,26.177a14.654,14.654,0,0,1-.216,1.656,3.088,3.088,0,0,1-4.881,1.713c-1.7-1.369-3.3-2.853-4.948-4.287Q2.672,24,1.231,22.741a3.3,3.3,0,0,1-.143-5.019c2.587-2.32,5.22-4.59,7.84-6.874a2.881,2.881,0,0,1,3.194-.476,3.037,3.037,0,0,1,1.93,2.615c.043.347.043.7.068,1.127h.595q4.057,0,8.114,0c1.018,0,1.333.309,1.341,1.313,0,.453-.012.907.006,1.36a1.271,1.271,0,0,0,.722,1.227A1.221,1.221,0,0,0,26.32,17.7q3.635-3.228,7.278-6.447c.944-.837.933-1.516,0-2.339Q30.009,5.745,26.43,2.568c-.391-.346-.764-.711-1.378-.493A1.074,1.074,0,0,0,24.241,3c-.059.582-.056,1.171-.068,1.757-.02.945-.34,1.271-1.283,1.272q-3.276,0-6.552,0c-.728,0-1.1-.288-1.159-.849-.071-.727.313-1.129,1.125-1.133,1.764-.009,3.528,0,5.292,0h.584c.021-.392.03-.741.059-1.088A3,3,0,0,1,24.076.328,2.827,2.827,0,0,1,27.208.64C28.915,2.053,30.56,3.541,32.225,5c.959.842,1.924,1.678,2.86,2.546a3.29,3.29,0,0,1-.013,5.083q-3.674,3.3-7.394,6.545a3.175,3.175,0,0,1-5.11-.817,5.908,5.908,0,0,1-.353-1.6,4.081,4.081,0,0,1-.005-.657h-.642q-4.057,0-8.114,0c-1.027,0-1.31-.288-1.326-1.314a10.431,10.431,0,0,0-.068-1.654,1.139,1.139,0,0,0-1.972-.694q-3.825,3.355-7.617,6.747a1.234,1.234,0,0,0-.007,1.935q3.8,3.389,7.618,6.746a1.153,1.153,0,0,0,1.981-.711,11.925,11.925,0,0,0,.068-1.755c.022-.893.332-1.209,1.225-1.211q3.276-.007,6.552,0c.721,0,1.076.234,1.2.762.157.688-.323,1.218-1.134,1.222-1.731.009-3.461,0-5.191,0H14.16" transform="translate(0 0)" fill="#0b3443"/>
  </g>
</svg>
