<svg xmlns="http://www.w3.org/2000/svg" xmlns:xlink="http://www.w3.org/1999/xlink" width="31.001" height="31.001" viewBox="0 0 31.001 31.001">
  <defs>
    <clipPath id="clip-path">
      <rect id="Rectangle_38271" data-name="Rectangle 38271" width="31.001" height="31.001" fill="#b39d74"/>
    </clipPath>
  </defs>
  <g id="Car_Block_Icon" clip-path="url(#clip-path)">
    <path id="Path_67551" data-name="Path 67551" d="M16.144,31.6A15.456,15.456,0,0,1,5.214,5.213,15.456,15.456,0,1,1,27.073,27.072,15.355,15.355,0,0,1,16.144,31.6m0-29.633a14.177,14.177,0,0,0-10.024,24.2A14.177,14.177,0,1,0,26.168,6.118,14.084,14.084,0,0,0,16.144,1.966" transform="translate(-0.643 -0.642)" fill="#b39d74"/>
    <rect id="Rectangle_38270" data-name="Rectangle 38270" width="1.28" height="29.658" transform="translate(4.562 5.467) rotate(-45)" fill="#b39d74"/>
    <path id="Path_67552" data-name="Path 67552" d="M157.048,163.071l1.975,1.975-2.671-1.7.7-.28" transform="translate(-146.347 -152.636)" fill="#b39d74"/>
    <path id="Path_67553" data-name="Path 67553" d="M125.234,134.8a.3.3,0,0,1-.341-.24q-.667-2.069-1.357-4.13c-.138-.413-.146-.411-.581-.411h-9.3c-.429,0-.435,0-.575.415l-.317.952.748.748-.7.28,1.04.66c.141-.42.282-.84.417-1.263a.267.267,0,0,1,.3-.225c2.5,0,4.991,0,7.486.01a.329.329,0,0,1,.257.15c.335.977.655,1.959.976,2.94.005.015,0,.034-.008.09h-7.128l1.6,1.6h7.122c.363,0,.368,0,.368.374q0,1.779,0,3.558c0,.342-.014.358-.36.358h-2.84l1.549,1.549h1.349c.235,0,.31.075.307.3-.006.449-.006.9-.005,1.349l.991.991h.552V134.8c-.538,0-1.042-.006-1.547,0m-13.5,5.863c-.342,0-.353-.013-.353-.364q0-1.792,0-3.584c0-.33.012-.341.346-.342h4.215l-.2-.2-1.4-1.4h-1.05c.092-.281.175-.538.259-.792l-1.24-1.24q-.292.882-.575,1.767a.352.352,0,0,1-.417.288c-.492-.013-.985,0-1.481,0v10.063h1.539v-.271c0-.69.008-1.381,0-2.071,0-.229.065-.307.3-.306q5.052.007,10.1,0l-1.551-1.551h-8.5" transform="translate(-102.808 -121.701)" fill="#b39d74"/>
    <path id="Path_67554" data-name="Path 67554" d="M300.756,247.52c.042-.764.455-1.055,1.05-1.037.729.023,1,.4,1.019,1.066a.963.963,0,0,1-1.048,1.005.977.977,0,0,1-1.022-1.035" transform="translate(-281.51 -230.709)" fill="#b39d74"/>
    <path id="Path_67555" data-name="Path 67555" d="M152.242,248.48a1.039,1.039,0,0,1,.057-2.076,1.039,1.039,0,0,1-.057,2.076" transform="translate(-141.556 -230.636)" fill="#b39d74"/>
  </g>
</svg>
