<svg xmlns="http://www.w3.org/2000/svg" xmlns:xlink="http://www.w3.org/1999/xlink" width="34.922" height="30.225" viewBox="0 0 34.922 30.225">
  <defs>
    <clipPath id="clip-path">
      <rect id="Rectangle_38336" data-name="Rectangle 38336" width="29.918" height="23.275" fill="#b39d74"/>
    </clipPath>
  </defs>
  <g id="E3lan_Icon" transform="matrix(0.966, -0.259, 0.259, 0.966, 0, 7.743)" clip-path="url(#clip-path)">
    <path id="Path_67615" data-name="Path 67615" d="M18.209,19.254a4.988,4.988,0,1,1-9.593-2.63L2.447,14.9V16.6H0V6.662H2.424v1.7c.591-.156,1.119-.293,1.645-.436L23.837,2.537c1.11-.3,2.218-.614,3.329-.911.236-.063.345-.169.331-.429-.021-.387-.006-.775-.006-1.2h2.425V23.275H27.493c0-.42-.011-.819,0-1.217a.353.353,0,0,0-.3-.417Q22.84,20.474,18.483,19.3c-.079-.021-.162-.027-.274-.044m9.266-15.18c-.147.034-.24.052-.33.076q-11.79,3.22-23.58,6.442c-1.155.316-1.145.321-1.138,1.426a.4.4,0,0,0,.352.454q11.681,3.174,23.358,6.365c.435.119.87.233,1.338.358ZM11.045,17.258a2.5,2.5,0,1,0,4.758,1.29l-4.758-1.29" transform="translate(0 0)" fill="#b39d74"/>
  </g>
</svg>
