<svg xmlns="http://www.w3.org/2000/svg" width="143.166" height="155.193" viewBox="0 0 143.166 155.193">
  <g id="Group_107857" data-name="Group 107857" transform="translate(-888.747 -400.763)">
    <g id="Group_107856" data-name="Group 107856">
      <g id="Group_107855" data-name="Group 107855">
        <g id="Group_107854" data-name="Group 107854">
          <g id="Group_107853" data-name="Group 107853">
            <g id="Group_107852" data-name="Group 107852">
              <path id="Logo_Shadow" d="M644.372,1219.353v1.523c0,1.772-.009,3.525-.037,5.268-.074,4.2-.23,8.334-.534,12.418-.323,4.543-.82,9.023-1.548,13.429a100.623,100.623,0,0,1-7.36,25.057c-7.86,17.494-21.939,33.749-46.569,48.977l-.479.3-.249.165-.074.046-.332-.211-.5-.3c-24.629-15.227-38.709-31.474-46.569-48.977a100.3,100.3,0,0,1-7.36-25.066c-.728-4.406-1.226-8.875-1.549-13.419-.3-4.085-.46-8.224-.535-12.427-.028-1.741-.037-3.5-.037-5.259v-1.523h1.538c.552.037,1.1.073,1.656.1,4.331.238,8.68.275,13.02.1,2.9-.119,5.8-.322,8.689-.625,10.725-1.395,22.633-5.148,30.812-14.389l.691-.761.452-.524h.028l.055.055.4.458.691.771c8.189,9.243,20.077,13,30.794,14.389a136.79,136.79,0,0,0,18.9.652c.94-.037,1.88-.073,2.811-.128.562-.028,1.115-.064,1.668-.1Z" transform="translate(372.732 -786.539)" fill="rgba(180,156,116,0.13)" fill-rule="evenodd"/>
              <path id="Logo_Shadow-2" data-name="Logo_Shadow" d="M628.666,1217.13v1.313c0,1.527-.008,3.038-.032,4.541-.063,3.623-.2,7.183-.461,10.7-.278,3.916-.707,7.777-1.334,11.574a86.729,86.729,0,0,1-6.344,21.6c-6.775,15.078-18.909,29.089-40.138,42.213l-.413.26-.214.142-.063.039-.286-.182-.429-.26c-21.228-13.125-33.363-27.127-40.138-42.213a86.447,86.447,0,0,1-6.344-21.6c-.627-3.8-1.056-7.65-1.335-11.566-.262-3.521-.4-7.088-.461-10.711-.024-1.5-.032-3.014-.032-4.533v-1.313h1.326c.476.031.952.063,1.427.087,3.733.205,7.481.237,11.222.087,2.5-.1,5-.277,7.489-.538,9.244-1.2,19.508-4.437,26.557-12.4l.6-.656.389-.451h.024l.048.047.342.395.6.664c7.058,7.966,17.3,11.2,26.541,12.4a117.932,117.932,0,0,0,16.288.562c.81-.032,1.62-.063,2.422-.111.485-.024.961-.055,1.438-.087Z" transform="translate(380.586 -778.025)" fill="rgba(180,156,116,0.13)" fill-rule="evenodd"/>
              <path id="Path_61902" data-name="Path 61902" d="M673.81,1223.52v1.917c0,2.23-.012,4.437-.046,6.632-.093,5.292-.289,10.491-.673,15.633-.406,5.719-1.032,11.359-1.948,16.9a126.67,126.67,0,0,1-9.266,31.543c-9.895,22.022-27.618,42.485-58.623,61.654l-.6.38-.313.208-.093.058-.418-.266-.627-.38c-31-19.169-48.728-39.62-58.623-61.654a126.26,126.26,0,0,1-9.266-31.555c-.916-5.546-1.543-11.173-1.949-16.893-.382-5.142-.579-10.353-.673-15.644-.035-2.192-.046-4.4-.046-6.62v-1.917h1.937c.695.046,1.39.093,2.085.127,5.452.3,10.926.346,16.39.127,3.654-.15,7.3-.405,10.938-.786,13.5-1.756,28.492-6.481,38.787-18.113l.87-.958.569-.659h.035l.07.069.5.577.87.97c10.308,11.635,25.274,16.361,38.764,18.114a172.21,172.21,0,0,0,23.79.821c1.184-.046,2.366-.093,3.538-.161.708-.035,1.4-.081,2.1-.127Z" transform="translate(358.104 -802.494)" fill="#c4a469" fill-rule="evenodd"/>
              <path id="Path_61903" data-name="Path 61903" d="M546.128,1317.9c.335,22.7,2.775,48.856,11.617,68.549,6.529,14.273,19.6,30.5,31.2,41.109l-2.436-75.777Z" transform="translate(345.669 -894.029)" fill="#ac1822" fill-rule="evenodd"/>
              <path id="Path_61904" data-name="Path 61904" d="M744.571,1485.117l2.436,75.776a195.6,195.6,0,0,0,25.7,18.841,195.1,195.1,0,0,0,25.7-18.841l1.828-75.776Z" transform="translate(187.603 -1027.359)" fill="#fff" fill-rule="evenodd"/>
              <path id="Path_61905" data-name="Path 61905" d="M1052.019,1316.85l-41.006,34.1-1.828,75.776c11.616-10.6,24.707-26.825,31.236-41.1,8.841-19.7,11.251-46.063,11.594-68.769Z" transform="translate(-23.171 -893.193)" fill="#316533" fill-rule="evenodd"/>
              <path id="Path_61906" data-name="Path 61906" d="M614.644,1221.649s-15.844,24.013-68.522,19.51l40.377,33.888h55.677l41.006-34.1s-47.888,6.217-68.53-19.3Z" transform="translate(345.675 -817.289)" fill="#040504" fill-rule="evenodd"/>
            </g>
          </g>
        </g>
      </g>
    </g>
  </g>
</svg>
