<svg xmlns="http://www.w3.org/2000/svg" width="33.568" height="34.338" viewBox="0 0 33.568 34.338">
  <g id="Google_Icon" transform="translate(-755.039 185.829)">
    <g id="Group_109462" data-name="Group 109462" transform="translate(755.039 -185.829)">
      <path id="Path_91588" data-name="Path 91588" d="M271.358,237.136c4.056-3.786,5.859-10.1,4.778-16.136H260v6.671h9.195a7.591,7.591,0,0,1-3.426,5.138Z" transform="translate(-242.876 -206.953)" fill="#4f717e" opacity="0.629"/>
      <path id="Path_91589" data-name="Path 91589" d="M90,296.417a17.308,17.308,0,0,0,26.683,5.319l-5.589-4.327A10.331,10.331,0,0,1,95.679,292Z" transform="translate(-88.201 -271.553)" fill="#4f717e" opacity="0.968"/>
      <path id="Path_91590" data-name="Path 91590" d="M77.518,181a10.278,10.278,0,0,1,0-6.581L71.838,170a17.418,17.418,0,0,0,0,15.415Z" transform="translate(-70.039 -160.55)" fill="#4f717e" opacity="0.71"/>
      <path id="Path_91591" data-name="Path 91591" d="M95.679,79.038c1.983-6.22,10.457-9.826,16.136-4.507l4.958-4.868A17.021,17.021,0,0,0,90,74.621Z" transform="translate(-88.201 -65.171)" fill="#4f717e" opacity="0.359"/>
    </g>
  </g>
</svg>
