<svg id="Group_108028" data-name="Group 108028" xmlns="http://www.w3.org/2000/svg" xmlns:xlink="http://www.w3.org/1999/xlink" width="28.934" height="28.964" viewBox="0 0 28.934 28.964">
  <defs>
    <clipPath id="clip-path">
      <rect id="Rectangle_38457" data-name="Rectangle 38457" width="28.934" height="28.964" fill="#b39d74"/>
    </clipPath>
  </defs>
  <g id="Group_108028-2" data-name="Group 108028" clip-path="url(#clip-path)">
    <path id="Path_67729" data-name="Path 67729" d="M28.934,110.679H0V99.836H.461c2.707,0,5.414.005,8.12-.007a.582.582,0,0,1,.622.377c.468.983.976,1.946,1.448,2.927a.524.524,0,0,0,.555.339q3.266-.017,6.532,0a.52.52,0,0,0,.547-.347q.728-1.51,1.5-3a.555.555,0,0,1,.377-.282c2.873-.015,5.746-.011,8.619-.008a.664.664,0,0,1,.149.041Zm-26.259-2.7H26.24v-5.444c-1.491,0-2.941-.009-4.391.015a.619.619,0,0,0-.406.322q-.763,1.467-1.478,2.957a.522.522,0,0,1-.55.343q-4.944-.016-9.888,0a.52.52,0,0,1-.55-.341c-.477-.994-.989-1.971-1.467-2.964a.511.511,0,0,0-.553-.338c-.619.022-1.24.007-1.859.007H2.675Z" transform="translate(0 -81.715)" fill="#b39d74"/>
    <path id="Path_67730" data-name="Path 67730" d="M45.09,18.088l-7.666-7.667,1.841-1.841,4.352,4.359.113-.039V0h2.686V12.9L50.86,8.452,52.8,10.378l-7.708,7.71" transform="translate(-30.633)" fill="#b39d74"/>
  </g>
</svg>
