<svg xmlns="http://www.w3.org/2000/svg" width="42.767" height="42.767" viewBox="0 0 42.767 42.767">
  <g id="Group_109484" data-name="Group 109484" transform="translate(-3.375 -3.375)">
    <g id="Group_109483" data-name="Group 109483">
      <g id="Group_109482" data-name="Group 109482">
        <path id="Path_61054" data-name="Path 61054" d="M28.348,26.027,22.93,20.609l5.418-5.418a1.643,1.643,0,1,0-2.323-2.323l-5.418,5.418-5.418-5.418a1.643,1.643,0,1,0-2.323,2.323l5.418,5.418-5.418,5.418a1.588,1.588,0,0,0,0,2.323,1.632,1.632,0,0,0,2.323,0l5.418-5.418,5.418,5.418a1.651,1.651,0,0,0,2.323,0A1.632,1.632,0,0,0,28.348,26.027Z" transform="translate(4.151 4.149)" fill="#0c3443"/>
        <path id="Path_61055" data-name="Path 61055" d="M24.758,6.254a18.5,18.5,0,1,1-13.087,5.418A18.382,18.382,0,0,1,24.758,6.254m0-2.879A21.383,21.383,0,1,0,46.142,24.758,21.38,21.38,0,0,0,24.758,3.375Z" fill="#0c3443"/>
      </g>
    </g>
  </g>
</svg>
