<svg id="Group_107863" data-name="Group 107863" xmlns="http://www.w3.org/2000/svg" xmlns:xlink="http://www.w3.org/1999/xlink" width="28.837" height="28.831" viewBox="0 0 28.837 28.831">
  <defs>
    <clipPath id="clip-path">
      <rect id="Rectangle_38385" data-name="Rectangle 38385" width="28.837" height="28.831" fill="#b39d74"/>
    </clipPath>
  </defs>
  <path id="Path_67652" data-name="Path 67652" d="M0,19.812V45.058H25.218V32.491H22.577v9.885H2.674v-19.9h9.891v-2.66Z" transform="translate(0 -16.227)" fill="#b39d74"/>
  <g id="Group_107864" data-name="Group 107864">
    <g id="Group_107863-2" data-name="Group 107863" clip-path="url(#clip-path)">
      <path id="Path_67653" data-name="Path 67653" d="M55.24,0l6.294,6.3c-.1.106-.22.237-.345.362Q54.3,13.551,47.4,20.438a1.145,1.145,0,0,1-.608.311c-2.264.3-4.532.585-6.868.881.085-.753.158-1.452.245-2.149.2-1.569.394-3.138.61-4.7a1.085,1.085,0,0,1,.267-.585Q48.052,7.157,55.078.142C55.14.08,55.211.026,55.24,0M42.979,18.553c.867-.121,1.643-.206,2.408-.349a1.63,1.63,0,0,0,.814-.382c2.442-2.413,4.865-4.846,7.292-7.274.1-.1.2-.216.274-.292L51.275,7.771a1.441,1.441,0,0,0-.143.116q-3.786,3.784-7.57,7.572a.548.548,0,0,0-.177.25c-.14.918-.265,1.839-.407,2.844M57.66,6.24,55.311,3.886,53.356,5.825l2.375,2.363L57.66,6.24" transform="translate(-32.697)" fill="#b39d74"/>
    </g>
  </g>
</svg>
