<svg id="Group_108035" data-name="Group 108035" xmlns="http://www.w3.org/2000/svg" xmlns:xlink="http://www.w3.org/1999/xlink" width="24.462" height="28" viewBox="0 0 24.462 28">
  <defs>
    <clipPath id="clip-path">
      <rect id="Rectangle_38459" data-name="Rectangle 38459" width="24.462" height="28" fill="#b39d74"/>
    </clipPath>
  </defs>
  <g id="Group_108035-2" data-name="Group 108035" clip-path="url(#clip-path)">
    <path id="Path_67735" data-name="Path 67735" d="M9.932,100.019l1.1-3.3H9.658V95H14.8V96.68H13.414l1.1,3.321c.107-.192.18-.312.243-.437.563-1.121,1.133-2.239,1.678-3.369a.556.556,0,0,1,.6-.36c1.2.018,2.4.014,3.594,0a.407.407,0,0,1,.473.321q1.635,4.965,3.29,9.922c.022.067.041.135.071.234H0c.1-.292.185-.565.276-.839q1.54-4.631,3.074-9.264a.449.449,0,0,1,.517-.377c1.183.02,2.367.018,3.55,0a.56.56,0,0,1,.6.363c.531,1.106,1.09,2.2,1.639,3.3.069.138.142.273.275.524m4.256,4.572h7.893c-.041-.148-.07-.273-.111-.4q-.845-2.525-1.694-5.049c-.172-.51-.218-1.217-.578-1.468-.378-.264-1.063-.076-1.612-.113a.514.514,0,0,0-.569.346c-.723,1.482-1.468,2.953-2.205,4.428l-1.125,2.251m-3.949,0a2.153,2.153,0,0,0-.075-.219c-1.089-2.18-2.175-4.361-3.28-6.533a.6.6,0,0,0-.43-.253c-.45-.033-.906.012-1.356-.02-.314-.023-.429.111-.519.383-.544,1.642-1.1,3.279-1.657,4.919-.189.562-.369,1.127-.564,1.723Zm1.986.042c.421-.841.8-1.591,1.17-2.346a.363.363,0,0,0,.009-.25c-.375-1.108-.758-2.215-1.153-3.363a1.686,1.686,0,0,0-.131.232q-.529,1.548-1.048,3.1a.436.436,0,0,0,0,.295c.365.756.743,1.506,1.156,2.335" transform="translate(0 -78.315)" fill="#b39d74"/>
    <path id="Path_67736" data-name="Path 67736" d="M29.821,6.941a6.992,6.992,0,1,1,6.928,7.046,7,7,0,0,1-6.928-7.046m12.261.085a5.3,5.3,0,0,0-5.271-5.3,5.351,5.351,0,0,0-5.282,5.306,5.277,5.277,0,0,0,10.553-.005" transform="translate(-24.582 0)" fill="#b39d74"/>
  </g>
</svg>
