<svg id="Group_107920" data-name="Group 107920" xmlns="http://www.w3.org/2000/svg" xmlns:xlink="http://www.w3.org/1999/xlink" width="23.136" height="31" viewBox="0 0 23.136 31">
  <defs>
    <clipPath id="clip-path">
      <rect id="Rectangle_38436" data-name="Rectangle 38436" width="23.136" height="31" fill="#b39d74"/>
    </clipPath>
  </defs>
  <g id="Group_107920-2" data-name="Group 107920" clip-path="url(#clip-path)">
    <path id="Path_67678" data-name="Path 67678" d="M11.562,31c-1.105-1.31-2.152-2.511-3.154-3.747a62.315,62.315,0,0,1-5.36-7.5A25.578,25.578,0,0,1,.426,14.28,10.232,10.232,0,0,1,.4,8.519,11.108,11.108,0,0,1,6.434,1.184a11.148,11.148,0,0,1,7.051-1A11.145,11.145,0,0,1,22.3,7.244a10.719,10.719,0,0,1-.388,9.116,53.7,53.7,0,0,1-6.656,10.214c-1.177,1.468-2.408,2.892-3.691,4.427m-.031-4.363c.992-1.27,1.907-2.412,2.79-3.578a48.657,48.657,0,0,0,4.82-7.675A8.2,8.2,0,0,0,19.7,8.5a8.6,8.6,0,0,0-8.277-5.607A8.16,8.16,0,0,0,4.918,5.97c-2,2.514-2.7,5.281-1.379,8.38a35.377,35.377,0,0,0,3.767,6.618c1.342,1.886,2.764,3.716,4.225,5.669" transform="translate(0 0)" fill="#b39d74"/>
    <path id="Path_67679" data-name="Path 67679" d="M44.509,39.8a4.8,4.8,0,1,1-4.824-4.775A4.848,4.848,0,0,1,44.509,39.8m-2.864.046a1.868,1.868,0,0,0-1.925-1.957,1.946,1.946,0,1,0-.021,3.893,1.867,1.867,0,0,0,1.946-1.936" transform="translate(-28.146 -28.244)" fill="#b39d74"/>
  </g>
</svg>
