<svg xmlns="http://www.w3.org/2000/svg" width="478.483" height="518.677" viewBox="0 0 478.483 518.677">
  <g id="Group_107850" data-name="Group 107850" transform="translate(-721 -219.02)">
    <path id="Logo_Shadow" d="M1009.127,1270.979v6.408c0,7.455-.039,14.83-.155,22.165-.31,17.687-.967,35.062-2.249,52.247-1.359,19.115-3.449,37.962-6.511,56.5a423.348,423.348,0,0,1-30.967,105.421c-33.069,73.6-92.3,141.992-195.926,206.057l-2.017,1.271-1.046.7-.31.192-1.4-.888-2.094-1.271C662.835,1655.71,603.6,1587.358,570.53,1513.718a421.978,421.978,0,0,1-30.967-105.46c-3.062-18.535-5.156-37.34-6.515-56.459-1.278-17.185-1.935-34.6-2.25-52.286-.116-7.327-.155-14.714-.155-22.126v-6.408h6.473c2.323.154,4.645.309,6.968.424,18.22,1,36.518,1.156,54.777.424,12.213-.5,24.387-1.354,36.558-2.627,45.123-5.867,95.224-21.661,129.633-60.537l2.907-3.2,1.9-2.2h.116l.233.232,1.667,1.927,2.908,3.243c34.451,38.887,84.471,54.681,129.556,60.538a575.589,575.589,0,0,0,79.509,2.742c3.956-.154,7.908-.309,11.825-.54,2.365-.117,4.692-.271,7.019-.426Z" transform="translate(190.356 -984.236)" fill="rgba(180,156,116,0.13)" fill-rule="evenodd" opacity="0.252"/>
    <path id="Logo_Shadow-2" data-name="Logo_Shadow" d="M846.138,1247.911v4.225c0,4.915-.025,9.778-.1,14.615-.2,11.662-.638,23.118-1.483,34.45-.9,12.6-2.274,25.031-4.293,37.253a279.139,279.139,0,0,1-20.418,69.511c-21.8,48.531-60.861,93.624-129.187,135.867l-1.33.838-.689.458-.2.127-.921-.585-1.381-.838c-68.324-42.242-107.382-87.311-129.187-135.867a278.236,278.236,0,0,1-20.418-69.537c-2.019-12.221-3.4-24.621-4.3-37.227-.842-11.331-1.276-22.814-1.483-34.475-.076-4.831-.1-9.7-.1-14.589v-4.225h4.268c1.531.1,3.063.2,4.594.28,12.014.66,24.078.762,36.118.28,8.053-.331,16.08-.893,24.1-1.732,29.752-3.869,62.787-14.283,85.475-39.916l1.917-2.112,1.253-1.453h.076l.154.153,1.1,1.271,1.917,2.139c22.716,25.641,55.7,36.055,85.425,39.917a379.521,379.521,0,0,0,52.425,1.808c2.609-.1,5.214-.2,7.8-.356,1.56-.077,3.094-.178,4.628-.281Z" transform="translate(271.85 -895.896)" fill="rgba(180,156,116,0.13)" fill-rule="evenodd" opacity="0.465"/>
  </g>
</svg>
