<svg id="Group_108012" data-name="Group 108012" xmlns="http://www.w3.org/2000/svg" xmlns:xlink="http://www.w3.org/1999/xlink" width="21.717" height="24.895" viewBox="0 0 21.717 24.895">
  <defs>
    <clipPath id="clip-path">
      <rect id="Rectangle_38445" data-name="Rectangle 38445" width="21.717" height="24.895" fill="#3d5862"/>
    </clipPath>
  </defs>
  <g id="Group_108010" data-name="Group 108010" clip-path="url(#clip-path)">
    <path id="Path_67684" data-name="Path 67684" d="M20.194,24.9H1.541V4.658H0V3.122H.442c1.505,0,3.01-.009,4.515.008A.647.647,0,0,0,5.6,2.77C6.109,1.925,6.648,1.1,7.159.258A.472.472,0,0,1,7.625,0c2.167.008,4.334,0,6.5.015a.594.594,0,0,1,.421.236q.841,1.285,1.635,2.6a.5.5,0,0,0,.5.276c1.531-.01,3.062,0,4.593,0h.446V4.651H20.194ZM18.64,4.683H3.079V23.354H18.64ZM7.212,3.092h7.3c-.313-.5-.59-.971-.893-1.418a.454.454,0,0,0-.333-.126q-2.432-.012-4.863,0a.443.443,0,0,0-.324.138c-.3.446-.58.909-.89,1.405" transform="translate(0 -0.001)" fill="#3d5862"/>
    <rect id="Rectangle_38442" data-name="Rectangle 38442" width="1.452" height="12.395" transform="translate(5.457 7.826)" fill="#3d5862"/>
    <rect id="Rectangle_38443" data-name="Rectangle 38443" width="1.465" height="12.394" transform="translate(10.131 7.827)" fill="#3d5862"/>
    <rect id="Rectangle_38444" data-name="Rectangle 38444" width="1.466" height="12.395" transform="translate(14.804 7.827)" fill="#3d5862"/>
  </g>
</svg>
