<svg id="Group_107857" data-name="Group 107857" xmlns="http://www.w3.org/2000/svg" xmlns:xlink="http://www.w3.org/1999/xlink" width="30.257" height="30.092" viewBox="0 0 30.257 30.092">
  <defs>
    <clipPath id="clip-path">
      <rect id="Rectangle_35244" data-name="Rectangle 35244" width="30.257" height="30.092" fill="#577c8d"/>
    </clipPath>
  </defs>
  <g id="Group_96757" data-name="Group 96757" transform="translate(0 0)" clip-path="url(#clip-path)">
    <path id="Path_61031" data-name="Path 61031" d="M30.257,15.03c-.126.11-.214.178-.293.257q-1.974,1.97-3.948,3.938a.548.548,0,0,0-.174.437c.007,1.9,0,3.809.011,5.713,0,.277-.06.362-.351.36-1.881-.014-3.763-.005-5.645-.01a.6.6,0,0,0-.475.192c-1.339,1.354-2.692,2.694-4.031,4.048-.164.166-.246.17-.422.006-.959-.894-1.833-1.871-2.772-2.785-.352-.343-.718-.675-1.036-1.047a1.205,1.205,0,0,0-1.008-.412c-1.78,0-3.559,0-5.339.008-.271,0-.336-.075-.334-.339.011-1.847,0-3.7.011-5.543a.828.828,0,0,0-.256-.627C3.018,18.048,1.844,16.865.657,15.7c-.174-.172-.369-.327-.55-.5-.119-.111-.156-.184-.015-.321,1.268-1.229,2.473-2.523,3.776-3.717a1.632,1.632,0,0,0,.592-1.33c-.036-1.722-.008-3.446-.019-5.168,0-.255.064-.32.319-.319,1.87.011,3.741,0,5.611.011a.668.668,0,0,0,.531-.213C12.208,2.824,13.53,1.517,14.835.193c.226-.229.38-.284.6,0a13.774,13.774,0,0,0,1.428,1.475c.889.838,1.734,1.719,2.6,2.575a.492.492,0,0,0,.4.114c1.882,0,3.763.006,5.645-.006.264,0,.343.064.339.335-.028,1.926.017,3.852-.021,5.779-.005.268.261.452.446.638q1.907,1.916,3.825,3.822a1.235,1.235,0,0,0,.155.111M19.963,5.5a1.4,1.4,0,0,0,.256.238c.61.612.8.578.149,1.245-.456.466-.449.473-1.161.114-.483-.244-.483-.244-.666.268q-1.152,3.207-2.3,6.416c-.018.051-.1.115-.015.177s.126-.016.182-.035c.553-.194,1.1-.4,1.655-.593,1.053-.364,2.1-.747,3.149-1.122.55-.2,1.107-.4,1.652-.618.468-.19.528-.288.205-.708a1.8,1.8,0,0,1-.174-.281c-.2-.394-.188-.494.165-.717a2.217,2.217,0,0,0,.4-.356.345.345,0,0,1,.573,0,2.317,2.317,0,0,0,.67.587c0-1.5,0-2.957,0-4.416,0-.174-.078-.2-.227-.2-1.484,0-2.967,0-4.514,0m5.349,12.8a.362.362,0,0,0,.1-.045c1.027-1.024,2.049-2.053,3.082-3.071.171-.169.059-.239-.046-.344q-1.457-1.451-2.913-2.9c-.051-.051-.085-.138-.211-.12,0,.313,0,.627,0,.941,0,.146-.039.2-.2.248-.373.1-.76.013-1.131.117a.165.165,0,0,1-.215-.191c.025-.352-.2-.631-.268-.953-.039-.174-.1-.148-.235-.094-.519.211-1.029.45-1.533.687-.651.305-1.288.65-1.938.962-.923.443-1.849.88-2.771,1.325-.093.045-.245.066-.249.181s.149.152.247.2c.889.425,1.781.842,2.669,1.27q1.756.847,3.5,1.709c.187.092.267.079.313-.152.056-.28.2-.543.247-.823.035-.2.113-.249.287-.237.369.025.739.052,1.108.067.154.006.15.1.15.2,0,.336,0,.671,0,1.024M24.7,19.918a3.439,3.439,0,0,0-.638.583.361.361,0,0,1-.522.061c-.28-.173-.451-.466-.741-.625-.148-.081-.1-.174-.007-.3a3.489,3.489,0,0,0,.306-.548c.214-.423.2-.435-.25-.591-.856-.294-1.714-.587-2.567-.891-1.283-.457-2.564-.923-3.845-1.387-.065-.023-.132-.064-.186-.009s.017.121.038.179q.414,1.175.832,2.348c.506,1.419,1.017,2.837,1.513,4.259.072.207.148.235.324.13.274-.163.558-.308.83-.475.093-.057.154-.117.247,0,.218.269.443.533.671.794.138.158.149.273-.024.434a3.623,3.623,0,0,0-.674.721c1.5,0,2.96,0,4.42,0,.2,0,.278-.047.277-.264-.008-1.45,0-2.9,0-4.428M18.47,4.872C17.38,3.78,16.345,2.751,15.321,1.711c-.174-.176-.281-.157-.438.01-.318.338-.654.66-.982.988q-.937.937-1.872,1.876c-.058.058-.18.1-.131.21s.162.047.246.049c.249.007.5.006.747,0,.138,0,.206.038.207.192a4.489,4.489,0,0,0,.065,1.04.232.232,0,0,1-.238.317,4.458,4.458,0,0,0-.768.207c-.228.05-.235.173-.141.365.388.8.766,1.6,1.144,2.4q.9,1.915,1.807,3.832c.036.077.052.188.164.193s.1-.109.132-.168c.981-2.11,1.975-4.213,3.033-6.286.048-.094.109-.22-.052-.274-.267-.09-.477-.316-.8-.277-.25.03-.418-.088-.4-.4a4.4,4.4,0,0,0,.074-.869c-.028-.193.055-.26.247-.254.347.011.695,0,1.111,0m-13.49,6.92a.432.432,0,0,0-.285.182c-1,1-2,2-3.014,2.989-.119.117-.032.148.022.2q1.523,1.528,3.05,3.052c.037.037.072.1.139.075.086-.03.059-.111.06-.173,0-.249.006-.5,0-.747,0-.141.02-.2.19-.241.315-.07.631-.014.938-.064.285-.046.393.1.405.32a3.436,3.436,0,0,0,.2.63c.061.261.181.233.362.147.619-.294,1.241-.58,1.86-.874,1.551-.737,3.1-1.477,4.666-2.224a9.5,9.5,0,0,0-1.439-.7c-1.33-.662-2.682-1.28-4.026-1.915-.351-.166-.7-.327-1.055-.5-.195-.094-.329-.087-.392.158a5.765,5.765,0,0,0-.218.76c-.027.246-.144.255-.334.264-.306.014-.6-.062-.9-.068-.182,0-.236-.065-.231-.237.009-.338,0-.675,0-1.039M18.418,25.224c-.375,0-.7,0-1.025,0-.1,0-.214.023-.213-.139,0-.359-.1-.71-.074-1.073.013-.176.053-.254.247-.28a3.8,3.8,0,0,0,.665-.194c.252-.083.371-.188.213-.494-.439-.85-.841-1.72-1.253-2.584-.568-1.189-1.13-2.381-1.7-3.57-.038-.079-.022-.227-.163-.213-.1.01-.119.129-.155.206-.479,1.014-.95,2.031-1.428,3.045q-.756,1.6-1.522,3.2c-.09.189-.105.3.154.355s.519.194.787.249c.178.037.23.111.216.27-.027.322-.026.65-.036.97-.008.253-.076.252-.248.249-.227,0-.453-.012-.679-.009-.1,0-.228-.056-.277.057s.08.17.147.238c.731.742,1.471,1.476,2.194,2.225a6.162,6.162,0,0,1,.834.806l3.315-3.315M14.071,13.96c-.821-2.283-1.626-4.506-2.414-6.735-.105-.3-.218-.342-.475-.181-.276.174-.593.476-.85.439-.3-.045-.457-.492-.713-.731a1.1,1.1,0,0,1-.113-.127c-.1-.129-.157-.238.02-.374a4.529,4.529,0,0,0,.506-.5c.057-.06.176-.1.127-.212-.039-.087-.141-.046-.214-.046-1.36,0-2.72,0-4.08-.006-.2,0-.284.05-.268.265.045.594.047,1.2.037,1.786-.013.776,0,1.555-.022,2.331,0,.076-.055.179.08.251.217-.225.442-.449.656-.684.105-.116.164-.114.3-.011a9.224,9.224,0,0,0,.816.693c.118.071.148.148.036.295-.173.228-.276.507-.432.749-.14.218-.052.32.149.391.468.165.938.325,1.405.494,1.412.512,2.819,1.038,4.236,1.534a6.223,6.223,0,0,0,1.216.38M5.626,19.938c-.084.083-.053.167-.053.241,0,1.36.007,2.72-.009,4.08,0,.284.1.327.347.325,1.315-.011,2.629,0,3.944-.008.1,0,.257.067.3-.057s-.108-.18-.182-.255c-.63-.641-.632-.64,0-1.3a2.9,2.9,0,0,0,.234-.246c.1-.133.192-.093.305-.024.245.15.491.3.746.434a.2.2,0,0,0,.317-.134c.1-.315.214-.626.326-.937.664-1.847,1.331-3.693,1.987-5.542.032-.09.149-.2.053-.3s-.217.025-.308.057c-1.089.382-2.17.785-3.256,1.175q-1.6.572-3.2,1.124c-.2.069-.208.173-.138.33a5.025,5.025,0,0,0,.442.777c.058.085.171.19.008.311-.259.192-.511.4-.75.612-.2.185-.359.175-.517-.048a3.041,3.041,0,0,0-.6-.611" transform="translate(0 0)" fill="#577c8d"/>
  </g>
</svg>
