<svg id="Group_108029" data-name="Group 108029" xmlns="http://www.w3.org/2000/svg" xmlns:xlink="http://www.w3.org/1999/xlink" width="28.935" height="28.776" viewBox="0 0 28.935 28.776">
  <defs>
    <clipPath id="clip-path">
      <rect id="Rectangle_38458" data-name="Rectangle 38458" width="28.935" height="28.776" fill="#b39d74"/>
    </clipPath>
  </defs>
  <g id="Group_108029-2" data-name="Group 108029" clip-path="url(#clip-path)">
    <path id="Path_67731" data-name="Path 67731" d="M28.935,109.49H0V98.651H.461c2.707,0,5.414.005,8.12-.007a.582.582,0,0,1,.622.377c.468.982.976,1.946,1.448,2.926a.524.524,0,0,0,.555.339q3.266-.017,6.533,0a.519.519,0,0,0,.547-.347q.728-1.509,1.5-2.994a.555.555,0,0,1,.376-.282c2.873-.015,5.746-.011,8.619-.008a.681.681,0,0,1,.149.041Zm-26.259-2.7H26.241v-5.441c-1.429,0-2.819.009-4.209-.007a.578.578,0,0,0-.624.375c-.465.982-.972,1.944-1.444,2.923a.522.522,0,0,1-.548.345q-4.944-.016-9.888,0a.521.521,0,0,1-.552-.339c-.484-1.007-1-2-1.489-3a.45.45,0,0,0-.484-.3c-.559.019-1.119.006-1.678.006H2.676Z" transform="translate(0 -80.713)" fill="#b39d74"/>
    <path id="Path_67732" data-name="Path 67732" d="M46.562,5.157v12.27H43.9V5.1L39.489,9.588,37.6,7.7,45.3,0l7.63,7.628L51.042,9.488,46.675,5.095l-.113.063" transform="translate(-30.764)" fill="#b39d74"/>
  </g>
</svg>
