<svg id="Group_107860" data-name="Group 107860" xmlns="http://www.w3.org/2000/svg" xmlns:xlink="http://www.w3.org/1999/xlink" width="25.711" height="25.633" viewBox="0 0 25.711 25.633">
  <defs>
    <clipPath id="clip-path">
      <rect id="Rectangle_38377" data-name="Rectangle 38377" width="25.711" height="25.633" fill="#577c8d"/>
    </clipPath>
  </defs>
  <g id="Group_107845" data-name="Group 107845" clip-path="url(#clip-path)">
    <path id="Path_67625" data-name="Path 67625" d="M25.7,9.547H0C0,8.787-.008,8.042.017,7.3c0-.1.173-.223.291-.29Q3.03,5.465,5.759,3.935,9.167,2.014,12.573.089a.473.473,0,0,1,.543-.008q4.367,2.475,8.747,4.926c1.167.656,2.332,1.314,3.5,1.959a.578.578,0,0,1,.343.6c-.024.652-.007,1.306-.007,1.979M23.846,7.966c-.155-.1-.209-.134-.267-.167q-5.266-2.96-10.537-5.91a.5.5,0,0,0-.415.023Q7.857,4.568,3.1,7.243c-.386.216-.765.445-1.221.711h8.388a2.883,2.883,0,0,1,.966-3.47,2.675,2.675,0,0,1,3.141-.065c1.315.847,1.48,2.122,1.062,3.547ZM14.062,6.777a1.216,1.216,0,0,0-1.181-1.225,1.213,1.213,0,1,0,1.181,1.225" transform="translate(-0.001 0)" fill="#577c8d"/>
    <path id="Path_67626" data-name="Path 67626" d="M15.15,77.71V76.17l.775-.037V69.742h1.567V76.13h4.06V69.744h1.567v6.384h4.866v-6.38h1.565v6.378h4.076V69.737h1.566v6.4h.775V77.71Z" transform="translate(-12.712 -58.515)" fill="#577c8d"/>
    <rect id="Rectangle_38375" data-name="Rectangle 38375" width="25.65" height="1.538" transform="translate(0.022 24.094)" fill="#577c8d"/>
    <rect id="Rectangle_38376" data-name="Rectangle 38376" width="23.236" height="1.538" transform="translate(1.229 20.877)" fill="#577c8d"/>
  </g>
</svg>
