<svg id="Group_107994" data-name="Group 107994" xmlns="http://www.w3.org/2000/svg" xmlns:xlink="http://www.w3.org/1999/xlink" width="27.484" height="21.377" viewBox="0 0 27.484 21.377">
  <defs>
    <clipPath id="clip-path">
      <rect id="Rectangle_38286" data-name="Rectangle 38286" width="27.484" height="21.377" fill="#577c8d"/>
    </clipPath>
  </defs>
  <g id="Group_99050" data-name="Group 99050" clip-path="url(#clip-path)">
    <path id="Path_67579" data-name="Path 67579" d="M27.477,20.011c-.175-.071-.3-.116-.428-.174a13.268,13.268,0,0,0-7.272-1.02,70.825,70.825,0,0,0-8.164,1.739,29.451,29.451,0,0,1-5.7.816A12.8,12.8,0,0,1,.189,20.109a.5.5,0,0,1-.18-.388C0,18.523,0,17.326,0,16.128V1.377c.129.049.223.076.309.118a13.11,13.11,0,0,0,7.11,1.123,44.906,44.906,0,0,0,7.234-1.513A36.3,36.3,0,0,1,21.274.022a12.652,12.652,0,0,1,6.034,1.242c.078.035.131.159.163.253a.868.868,0,0,1,.007.266V20.011ZM22.156,2.228a27.992,27.992,0,0,0-2.846.248c-1.884.353-3.758.769-5.622,1.214A32.312,32.312,0,0,1,5.529,4.936c-.239,0-.286.108-.334.308A2.874,2.874,0,0,1,3.116,7.47c-.274.083-.561.123-.833.182v8.384A3.2,3.2,0,0,1,5.34,19.144,26.188,26.188,0,0,0,8.156,18.9c2.095-.405,4.168-.919,6.257-1.354,1.728-.359,3.461-.7,5.2-.984a25.292,25.292,0,0,1,2.564-.163,1.948,1.948,0,0,0,.067-.2,2.9,2.9,0,0,1,2.589-2.386c.3-.038.4-.133.4-.445q-.02-3.821,0-7.643c0-.344-.127-.433-.428-.461a2.862,2.862,0,0,1-1.953-1.076,3.15,3.15,0,0,1-.7-1.956" transform="translate(0 0)" fill="#577c8d"/>
    <path id="Path_67580" data-name="Path 67580" d="M65.126,44.142a4.444,4.444,0,0,1,1.7-3.337,3.318,3.318,0,0,1,4.419.226,4.967,4.967,0,0,1,1.326,4.748,4.36,4.36,0,0,1-1.6,2.7,3.437,3.437,0,0,1-4.82-.663,5.6,5.6,0,0,1-1.021-3.67" transform="translate(-55.171 -33.945)" fill="#577c8d"/>
  </g>
</svg>
