<svg xmlns="http://www.w3.org/2000/svg" xmlns:xlink="http://www.w3.org/1999/xlink" width="24.582" height="24.448" viewBox="0 0 24.582 24.448">
  <defs>
    <clipPath id="clip-path">
      <rect id="Rectangle_35244" data-name="Rectangle 35244" width="24.582" height="24.448" fill="#b39d74"/>
    </clipPath>
  </defs>
  <g id="Group_96757" data-name="Group 96757" clip-path="url(#clip-path)">
    <path id="Path_61031" data-name="Path 61031" d="M24.582,12.211c-.1.089-.174.145-.238.208q-1.6,1.6-3.208,3.2a.445.445,0,0,0-.142.355c.006,1.547,0,3.094.009,4.641,0,.225-.049.294-.285.293-1.529-.011-3.057,0-4.586-.008a.486.486,0,0,0-.386.156c-1.088,1.1-2.187,2.189-3.275,3.288-.133.135-.2.138-.343,0-.779-.726-1.489-1.52-2.252-2.262-.286-.278-.584-.548-.842-.851a.979.979,0,0,0-.819-.334c-1.446,0-2.892,0-4.337.006-.22,0-.273-.061-.272-.275.009-1.5,0-3,.009-4.5a.673.673,0,0,0-.208-.509C2.452,14.663,1.5,13.7.533,12.752c-.142-.14-.3-.266-.447-.4-.1-.09-.127-.15-.012-.26,1.031-1,2.009-2.05,3.068-3.02a1.326,1.326,0,0,0,.481-1.08c-.03-1.4-.006-2.8-.016-4.2,0-.207.052-.26.259-.259,1.519.009,3.039,0,4.558.009a.543.543,0,0,0,.431-.173c1.062-1.073,2.136-2.135,3.2-3.211.183-.186.309-.23.487,0a11.19,11.19,0,0,0,1.16,1.2c.723.681,1.409,1.4,2.115,2.092a.4.4,0,0,0,.328.092c1.529,0,3.057,0,4.586,0,.215,0,.279.052.276.272-.022,1.565.014,3.13-.017,4.695,0,.217.212.367.362.518q1.549,1.557,3.107,3.1a1,1,0,0,0,.126.09m-8.363-7.74a1.141,1.141,0,0,0,.208.193c.5.5.653.469.121,1.012-.371.378-.365.384-.943.092-.392-.2-.392-.2-.541.218q-.936,2.606-1.869,5.213c-.015.041-.079.094-.012.144s.1-.013.148-.028c.449-.157.895-.326,1.345-.482.856-.3,1.706-.607,2.558-.911.446-.159.9-.322,1.342-.5.38-.155.429-.234.167-.575a1.465,1.465,0,0,1-.141-.228c-.163-.32-.153-.4.134-.583a1.8,1.8,0,0,0,.325-.289.28.28,0,0,1,.465,0,1.883,1.883,0,0,0,.545.477c0-1.217,0-2.4,0-3.588,0-.141-.064-.165-.185-.165-1.205,0-2.411,0-3.668,0m4.345,10.4a.294.294,0,0,0,.079-.036c.834-.832,1.664-1.668,2.5-2.495.139-.137.048-.194-.038-.28Q21.926,10.88,20.743,9.7c-.041-.041-.069-.112-.171-.1,0,.254,0,.51,0,.765,0,.118-.032.166-.16.2-.3.084-.617.011-.919.095a.134.134,0,0,1-.174-.155c.021-.286-.16-.513-.218-.774-.031-.141-.084-.12-.191-.077-.422.171-.836.366-1.246.558-.529.248-1.046.528-1.575.782-.75.36-1.5.715-2.251,1.076-.076.036-.2.054-.2.147s.121.123.2.161c.722.345,1.447.684,2.168,1.032q1.427.688,2.847,1.389c.152.075.217.064.254-.124.045-.227.16-.441.2-.669.029-.159.092-.2.233-.193.3.02.6.043.9.054.125,0,.122.08.122.166,0,.273,0,.545,0,.832m-.495,1.313a2.794,2.794,0,0,0-.518.474.294.294,0,0,1-.424.05c-.227-.141-.367-.378-.6-.508-.12-.066-.08-.141-.005-.24a2.835,2.835,0,0,0,.248-.445c.174-.344.166-.353-.2-.48-.7-.239-1.392-.477-2.085-.724-1.043-.371-2.083-.75-3.124-1.127-.053-.019-.107-.052-.151-.007s.014.1.031.145q.336.955.676,1.908c.411,1.153.826,2.3,1.229,3.46.059.169.121.191.263.106.223-.132.454-.251.675-.386.076-.046.125-.095.2,0,.177.219.36.433.546.645.112.128.121.222-.02.353a2.943,2.943,0,0,0-.548.586c1.218,0,2.4,0,3.591,0,.163,0,.226-.039.225-.214-.007-1.178,0-2.356,0-3.6M15.006,3.958c-.885-.887-1.726-1.723-2.558-2.569-.141-.143-.228-.128-.356.008-.259.274-.531.536-.8.8q-.761.761-1.521,1.524c-.047.047-.146.085-.107.171s.131.038.2.04c.2.005.4.005.607,0,.112,0,.167.031.168.156a3.647,3.647,0,0,0,.053.845.189.189,0,0,1-.194.258,3.622,3.622,0,0,0-.624.169c-.185.04-.191.14-.115.3.315.649.622,1.3.93,1.954q.735,1.556,1.468,3.113c.029.062.042.153.133.157s.085-.089.107-.137c.8-1.714,1.6-3.423,2.464-5.107.039-.077.088-.179-.043-.223-.217-.073-.388-.257-.653-.225-.2.024-.34-.072-.326-.322a3.571,3.571,0,0,0,.06-.706c-.022-.157.045-.211.2-.206.282.009.565,0,.9,0M4.046,9.58a.351.351,0,0,0-.232.148c-.815.81-1.627,1.625-2.448,2.429-.1.095-.026.12.018.164Q2.621,13.562,3.861,14.8c.03.03.059.08.113.061.07-.024.048-.091.048-.141,0-.2,0-.4,0-.607,0-.114.016-.165.155-.2.256-.057.513-.011.762-.052.232-.038.32.078.329.26a2.792,2.792,0,0,0,.163.512c.05.212.147.19.294.119.5-.239,1.008-.471,1.511-.71,1.26-.6,2.518-1.2,3.791-1.807a7.716,7.716,0,0,0-1.169-.57c-1.081-.538-2.179-1.04-3.271-1.556-.285-.135-.573-.266-.857-.4-.158-.076-.267-.071-.318.129a4.684,4.684,0,0,0-.177.617c-.022.2-.117.207-.271.215-.249.011-.49-.05-.734-.055-.148,0-.191-.053-.188-.193.007-.274,0-.549,0-.844M14.964,20.493h-.833c-.08,0-.174.018-.173-.113,0-.292-.081-.577-.06-.872.01-.143.043-.206.2-.227a3.085,3.085,0,0,0,.541-.158c.205-.067.3-.153.173-.4-.357-.691-.683-1.4-1.018-2.1-.461-.966-.918-1.934-1.381-2.9-.031-.065-.018-.184-.132-.173-.082.008-.1.1-.126.167-.389.824-.772,1.65-1.161,2.474q-.614,1.3-1.237,2.6c-.073.153-.086.244.125.288s.422.158.639.2c.145.03.187.09.176.219-.022.262-.021.528-.029.788-.006.206-.061.205-.2.2-.184,0-.368-.01-.552-.007-.077,0-.185-.046-.225.046s.065.138.119.193c.594.6,1.195,1.2,1.783,1.808a5.006,5.006,0,0,1,.678.655l2.693-2.693m-3.532-9.151c-.667-1.855-1.321-3.661-1.961-5.472-.085-.242-.177-.278-.386-.147-.225.141-.482.387-.691.356-.248-.037-.372-.4-.579-.594a.9.9,0,0,1-.092-.1c-.082-.1-.128-.193.016-.3a3.679,3.679,0,0,0,.411-.408c.046-.049.143-.084.1-.172-.032-.071-.115-.037-.174-.037-1.105,0-2.21,0-3.315,0-.166,0-.231.04-.218.215.037.483.039.972.03,1.451-.011.631,0,1.263-.018,1.894,0,.062-.044.146.065.2.176-.183.359-.365.533-.555.086-.094.134-.092.241-.009a7.494,7.494,0,0,0,.663.563c.1.058.12.12.03.24-.14.185-.224.412-.351.609-.114.177-.042.26.121.318.38.134.762.264,1.142.4,1.147.416,2.29.843,3.441,1.247a5.056,5.056,0,0,0,.988.309M4.571,16.2c-.069.067-.043.135-.043.2,0,1.1.006,2.21-.007,3.315,0,.231.079.266.282.264,1.068-.009,2.136,0,3.2-.006.084,0,.209.055.247-.046s-.088-.146-.148-.207c-.512-.521-.513-.52,0-1.06a2.354,2.354,0,0,0,.191-.2c.08-.108.156-.076.248-.019.2.122.4.245.606.353a.161.161,0,0,0,.257-.109c.082-.256.174-.508.265-.761.539-1.5,1.081-3,1.615-4.5.026-.073.121-.165.043-.243s-.176.02-.25.046c-.885.31-1.763.638-2.645.954q-1.3.465-2.6.913c-.164.056-.169.141-.112.268a4.083,4.083,0,0,0,.359.631c.047.069.139.155.007.253-.21.156-.415.321-.609.5-.165.15-.291.142-.42-.039a2.471,2.471,0,0,0-.491-.5" transform="translate(0 0)" fill="#b39d74"/>
  </g>
</svg>
