<svg id="Group_108018" data-name="Group 108018" xmlns="http://www.w3.org/2000/svg" xmlns:xlink="http://www.w3.org/1999/xlink" width="41.143" height="32" viewBox="0 0 41.143 32">
  <defs>
    <clipPath id="clip-path">
      <rect id="Rectangle_38286" data-name="Rectangle 38286" width="41.143" height="32" fill="#577c8d"/>
    </clipPath>
  </defs>
  <g id="Group_99050" data-name="Group 99050" clip-path="url(#clip-path)">
    <path id="Path_67579" data-name="Path 67579" d="M41.132,29.956c-.262-.106-.456-.173-.641-.261a19.862,19.862,0,0,0-10.886-1.527c-4.165.447-8.16,1.677-12.221,2.6a44.087,44.087,0,0,1-8.528,1.221A19.16,19.16,0,0,1,.283,30.1a.752.752,0,0,1-.269-.581C-.006,27.729,0,25.936,0,24.143V2.061c.193.073.333.113.462.177A19.626,19.626,0,0,0,11.109,3.92a67.222,67.222,0,0,0,10.83-2.265A54.346,54.346,0,0,1,31.846.033a18.939,18.939,0,0,1,9.032,1.859c.117.052.2.238.244.378a1.3,1.3,0,0,1,.01.4V29.956ZM33.167,3.336a41.9,41.9,0,0,0-4.26.372c-2.82.528-5.625,1.151-8.416,1.817-4.023.96-8.035,1.95-12.214,1.865-.357-.007-.429.162-.5.462a4.3,4.3,0,0,1-3.113,3.331c-.41.124-.839.185-1.247.272V24.005a4.784,4.784,0,0,1,4.576,4.653,39.2,39.2,0,0,0,4.216-.372c3.135-.607,6.239-1.376,9.366-2.026,2.587-.538,5.182-1.051,7.789-1.474a37.862,37.862,0,0,1,3.839-.244,2.916,2.916,0,0,0,.1-.3,4.344,4.344,0,0,1,3.876-3.572c.444-.057.6-.2.593-.667q-.031-5.72,0-11.441c0-.515-.191-.648-.64-.691a4.284,4.284,0,0,1-2.923-1.611,4.715,4.715,0,0,1-1.046-2.927" transform="translate(0 0)" fill="#577c8d"/>
    <path id="Path_67580" data-name="Path 67580" d="M65.127,46.166a6.652,6.652,0,0,1,2.539-5,4.967,4.967,0,0,1,6.615.338,7.436,7.436,0,0,1,1.984,7.107,6.526,6.526,0,0,1-2.395,4.037,5.145,5.145,0,0,1-7.216-.993,8.377,8.377,0,0,1-1.528-5.494" transform="translate(-50.224 -30.901)" fill="#577c8d"/>
  </g>
</svg>
