<svg id="Group_97963" data-name="Group 97963" xmlns="http://www.w3.org/2000/svg" xmlns:xlink="http://www.w3.org/1999/xlink" width="19.492" height="19.459" viewBox="0 0 19.492 19.459">
  <defs>
    <clipPath id="clip-path">
      <rect id="Rectangle_35637" data-name="Rectangle 35637" width="19.492" height="19.459" fill="#b39d74"/>
    </clipPath>
  </defs>
  <g id="Group_97962" data-name="Group 97962" clip-path="url(#clip-path)">
    <path id="Path_61907" data-name="Path 61907" d="M0,9.725A9.688,9.688,0,0,1,9.753,0a9.643,9.643,0,0,1,9.739,9.726,9.626,9.626,0,0,1-9.724,9.733A9.667,9.667,0,0,1,0,9.725m9.767,8.566A8.52,8.52,0,0,0,18.3,9.749,8.394,8.394,0,0,0,9.754,1.219a8.391,8.391,0,0,0-8.546,8.5,8.518,8.518,0,0,0,8.559,8.577" transform="translate(0 0)" fill="#b39d74"/>
    <path id="Path_61908" data-name="Path 61908" d="M63.038,72.279c0,.651.007,1.3,0,1.952,0,.248.088.35.339.34.294-.012.59-.011.885,0a.563.563,0,0,1,.6.585.546.546,0,0,1-.6.581q-1.815.013-3.631,0a.536.536,0,0,1-.583-.6.541.541,0,0,1,.581-.567c.3-.017.61-.014.915-.006.212.006.32-.063.319-.292q-.008-1.571,0-3.142c0-.222-.09-.306-.312-.292a5.2,5.2,0,0,1-.671,0,.519.519,0,0,1-.528-.491.531.531,0,0,1,.378-.616,3.326,3.326,0,0,1,.721-.072c.284-.011.57-.009.854,0,.524.015.736.234.738.756,0,.62,0,1.241,0,1.861" transform="translate(-52.694 -61.132)" fill="#b39d74"/>
    <path id="Path_61909" data-name="Path 61909" d="M74.259,43.211a.882.882,0,1,1-.891-.887.869.869,0,0,1,.891.887" transform="translate(-63.624 -37.144)" fill="#b39d74"/>
  </g>
</svg>
