<svg id="Group_107911" data-name="Group 107911" xmlns="http://www.w3.org/2000/svg" xmlns:xlink="http://www.w3.org/1999/xlink" width="27.098" height="31" viewBox="0 0 27.098 31">
  <defs>
    <clipPath id="clip-path">
      <rect id="Rectangle_38435" data-name="Rectangle 38435" width="27.098" height="31" fill="#ebe5d9"/>
    </clipPath>
  </defs>
  <g id="Group_107910" data-name="Group 107910" clip-path="url(#clip-path)">
    <path id="Path_67676" data-name="Path 67676" d="M40.026,0h.5c4.2,0,8.407,0,12.611.012A1.112,1.112,0,0,1,53.841.3Q56.47,2.881,59.055,5.51a1.05,1.05,0,0,1,.289.66q.024,8.344.011,16.689c0,.112-.012.225-.02.374H40.026ZM56.457,20.369c.014-.125.03-.2.03-.283,0-4.252.006-8.5-.01-12.757a1,1,0,0,0-.292-.616q-1.746-1.786-3.534-3.53a1.127,1.127,0,0,0-.712-.283c-2.845-.019-5.69-.013-8.535-.011-.17,0-.34.016-.5.025V20.369Z" transform="translate(-32.259 0)" fill="#ebe5d9"/>
    <path id="Path_67677" data-name="Path 67677" d="M0,63.425V40.232H5.718v2.846H2.868V60.547H16.461V57.7h2.832v5.726Z" transform="translate(0 -32.425)" fill="#ebe5d9"/>
  </g>
</svg>
