<svg xmlns="http://www.w3.org/2000/svg" width="36.675" height="36.675" viewBox="0 0 36.675 36.675">
  <g id="Icon_ionic-ios-close-circle-outline" data-name="Icon ionic-ios-close-circle-outline" transform="translate(18.337) rotate(45)">
    <path id="Path_61054" data-name="Path 61054" d="M9.7,8.291,6.41,5.005,9.7,1.72A1,1,0,0,0,8.286.311L5,3.6,1.716.311a.953.953,0,0,0-1.409,0,.963.963,0,0,0,0,1.409L3.592,5.005.307,8.291a.963.963,0,0,0,0,1.409.99.99,0,0,0,1.409,0L5,6.414,8.286,9.7A1,1,0,0,0,9.7,9.7.99.99,0,0,0,9.7,8.291Z" transform="translate(7.965 7.96)" fill="#fff"/>
    <path id="Path_61055" data-name="Path 61055" d="M12.967,1.745A11.222,11.222,0,0,1,20.9,20.9,11.223,11.223,0,0,1,5.031,5.031a11.147,11.147,0,0,1,7.936-3.285m0-1.745A12.966,12.966,0,1,0,25.934,12.966,12.964,12.964,0,0,0,12.967,0Z" transform="translate(0 0)" fill="#fff"/>
  </g>
</svg>
