<svg xmlns="http://www.w3.org/2000/svg" xmlns:xlink="http://www.w3.org/1999/xlink" width="71.206" height="79.13" viewBox="0 0 71.206 79.13">
  <defs>
    <clipPath id="clip-path">
      <rect id="Rectangle_35634" data-name="Rectangle 35634" width="71.206" height="79.13" fill="none"/>
    </clipPath>
    <clipPath id="clip-path-2">
      <rect id="Rectangle_35635" data-name="Rectangle 35635" width="70.281" height="51.619" fill="#fff" stroke="#707070" stroke-width="1"/>
    </clipPath>
    <clipPath id="clip-path-3">
      <rect id="Rectangle_35636" data-name="Rectangle 35636" width="79.811" height="66.311" fill="#fff" stroke="#707070" stroke-width="1"/>
    </clipPath>
  </defs>
  <g id="MOJ_Logo" clip-path="url(#clip-path)">
    <path id="Path_61901" data-name="Path 61901" d="M391.676,268.874h0a1.437,1.437,0,0,0-.412-.046c-.5-.007-1.011,0-1.517-.007-.32,0-.4-.069-.5-.355-.189-.518-.373-1.039-.573-1.553-.375-.968-.758-1.931-1.137-2.9-.235-.594-.477-1.188-.707-1.784-.182-.479-.343-.968-.529-1.445-.377-.968-.766-1.928-1.146-2.9-.085-.218-.152-.443-.207-.6.258-.289.49-.513.684-.77a.84.84,0,0,0,.228-.832,1.883,1.883,0,0,1-.118-.729,1.174,1.174,0,0,0-.612-1.05,1.841,1.841,0,0,1-.265-.145,1.363,1.363,0,0,0-1.335-.135,1.086,1.086,0,0,0-.757,1.064c0,.3.041.592.067.911a1.039,1.039,0,0,1-.237.067,11.075,11.075,0,0,1-2.383-.106,9.836,9.836,0,0,1-1.952-.71,8.721,8.721,0,0,0-2.01-.72,5.487,5.487,0,0,1-.887-.163,3.793,3.793,0,0,0-1.5-.064c-.4.027-.785.114-1.227.181.078-.312.154-.562.2-.819a14.09,14.09,0,0,0,.216-1.451,6.318,6.318,0,0,0-.272-1.894,2.744,2.744,0,0,0-1.234-1.814.443.443,0,0,1-.242-.427c.009-.316,0-.631,0-.947a.6.6,0,0,1,.194-.466,1.241,1.241,0,0,0,.1-1.466,1.716,1.716,0,0,0-.4-.326,1.985,1.985,0,0,0-.6-.307,1.1,1.1,0,0,0-.985,1.858.741.741,0,0,1,.217.415,9.467,9.467,0,0,1,.009.985.5.5,0,0,1-.24.445,3.307,3.307,0,0,0-1.39,2.2,6.388,6.388,0,0,0-.108,1.919,3.989,3.989,0,0,0,.495,1.991,1.353,1.353,0,0,1,.088.339,1.843,1.843,0,0,1-.357-.048,4.253,4.253,0,0,0-1.317-.28c-.4-.014-.8-.122-1.2-.112a4.989,4.989,0,0,0-1.3.172c-.658.192-1.3.456-1.938.7-.516.2-1.022.427-1.535.628a6.9,6.9,0,0,1-2.622.3,1.429,1.429,0,0,1-.29-.078c.023-.08.03-.129.046-.174a1.414,1.414,0,0,0-.534-1.525,3.9,3.9,0,0,0-.467-.25,1.355,1.355,0,0,0-1.466.142,1.17,1.17,0,0,0-.444,1.2.338.338,0,0,1-.131.362.349.349,0,0,0-.108.284,1.611,1.611,0,0,0,.412.835,6.957,6.957,0,0,0,.707.621.353.353,0,0,1,.037.023.275.275,0,0,1,.069.385l0,0c-.168.351-.311.716-.454,1.078-.467,1.193-.923,2.387-1.393,3.58-.391.993-.8,1.981-1.2,2.972-.435,1.083-.856,2.169-1.3,3.247-.21.509-.152.427-.626.433-.644.011-1.292,0-1.936,0-.366,0-.417.071-.359.433a1.964,1.964,0,0,0,.552.927,7.045,7.045,0,0,0,1.941,1.477,9.236,9.236,0,0,0,2.318.835c.292.076.606.085.882.172a10.59,10.59,0,0,0,1.6.223,15.5,15.5,0,0,0,2.56-.133.108.108,0,0,0,.037-.007c.557-.14,1.123-.259,1.671-.429a8.048,8.048,0,0,0,2.33-1.023,4.709,4.709,0,0,0,1.316-1.268,3.388,3.388,0,0,0,.3-.64c.083-.22.037-.343-.18-.422a2.227,2.227,0,0,0-.656-.142c-.479-.023-.96-.014-1.441-.007a.438.438,0,0,1-.474-.337c-.2-.553-.419-1.1-.631-1.649-.11-.28-.228-.555-.334-.835-.253-.653-.5-1.309-.748-1.965-.343-.9-.681-1.807-1.035-2.706-.325-.828-.665-1.649-.992-2.475-.161-.406-.3-.819-.474-1.287.17,0,.29-.009.412,0a14.078,14.078,0,0,0,3.534-.351c.295-.06.59-.133.879-.206.437-.108.873-.232,1.31-.335.315-.076.64-.119.96-.183a10.907,10.907,0,0,1,1.243-.25c.716-.062,1.439-.083,2.16-.092a4.952,4.952,0,0,1,2.088.41,1.775,1.775,0,0,0,1.285.023,6.03,6.03,0,0,1,1.181-.343,15.558,15.558,0,0,1,3.736.149c.037.007.071.025.108.035.313.08.626.165.944.239a7.2,7.2,0,0,1,.879.192,16.242,16.242,0,0,0,2.422.541,11.121,11.121,0,0,0,2.645.17c.1,0,.2.009.357.018a2.02,2.02,0,0,1-.058.289c-.133.351-.276.7-.414,1.05-.223.56-.44,1.122-.667,1.679-.343.837-.7,1.665-1.035,2.5-.276.685-.525,1.383-.792,2.073-.371.958-.868,1.867-1.149,2.862a3.906,3.906,0,0,1-.168.417.534.534,0,0,1-.573.372c-.644-.025-1.291-.009-1.936,0-.426,0-.527.142-.35.534a4.345,4.345,0,0,0,.44.741,5.491,5.491,0,0,0,1.692,1.362,11.251,11.251,0,0,0,1.5.7,5.575,5.575,0,0,0,.851.291c.352.087.716.121,1.071.2a12.078,12.078,0,0,0,2.244.245c.384.016.773-.094,1.162-.1a6.963,6.963,0,0,0,1.966-.312c.631-.2,1.275-.369,1.885-.617a6.487,6.487,0,0,0,1.862-1.2,2.805,2.805,0,0,0,.781-1.184.411.411,0,0,0-.3-.612m-35.088-9.453q-.007,4.328-.014,8.655c0,.856,0,.745-.771.748q-1.329.007-2.656,0c-.15,0-.3-.014-.5-.025a1.917,1.917,0,0,1,.066-.343c.511-1.266,1.029-2.529,1.54-3.795.356-.885.7-1.773,1.052-2.66.359-.908.716-1.816,1.08-2.722.023-.059.092-.1.138-.151l.069.039Zm1.2.6c.21.536.4,1.078.608,1.616.279.739.552,1.477.842,2.211.221.562.472,1.11.693,1.67.161.408.285.832.444,1.24.253.651.523,1.3.815,2.02-.175.018-.306.044-.439.044q-1.516,0-3.035,0c-.435,0-.469-.036-.469-.481q0-3.78,0-7.558c0-.468-.011-.933-.014-1.4,0-.135.018-.268.028-.4l.083-.016c.15.353.311.7.449,1.059m26.3,8.4h0c-.021.337-.071.394-.408.4-.785.007-1.57.007-2.352.007-.3,0-.608,0-.912,0a1.721,1.721,0,0,1-.281-.064c.08-.22.147-.417.223-.61.336-.862.667-1.729,1.016-2.587.4-.986.824-1.965,1.225-2.951.225-.557.417-1.131.64-1.688.242-.6.5-1.2.755-1.8l.1.011c.009.147.025.294.025.441q-.014,4.2-.03,8.391c0,.151,0,.3,0,.454m4.415.388a1.492,1.492,0,0,1-.264.016h-2.922c-.076,0-.152,0-.228,0-.163-.007-.263-.083-.263-.257,0-.062,0-.126,0-.188q0-4.441,0-8.881c0-.133.011-.264.018-.4h.083v0q.463,1.191.928,2.381c.318.8.647,1.6.958,2.408.251.654.474,1.319.727,1.972.242.631.509,1.252.764,1.878.108.266.219.532.325.8.069.167.039.238-.128.27" transform="translate(-334.891 -234.346)" fill="#c4a469"/>
    <g id="Mask_Group_29" data-name="Mask Group 29" transform="translate(0.993 6.083)" clip-path="url(#clip-path-2)">
      <path id="Path_61900" data-name="Path 61900" d="M212.5,248.269v.013q0,.123,0,.247,0,.249-.008.5c0,.074,0,.147-.006.221,0,.02,0,.041,0,.061,0,.071-.005.143-.008.215s-.007.165-.011.247h0c0,.071-.008.142-.012.212,0,.029,0,.057-.005.086,0,.065-.009.13-.013.2q-.008.124-.018.247c-.006.075-.012.149-.018.224-.008.09-.016.18-.024.27s-.015.154-.023.231c0,.011,0,.021,0,.032-.008.075-.016.15-.024.225s-.019.163-.028.245-.019.157-.029.235c0,.014,0,.027-.005.041-.009.071-.018.142-.028.212s-.022.162-.034.243-.021.142-.031.213q-.042.275-.089.548l-.03.173q-.068.378-.145.754c-.016.078-.032.155-.049.233q-.072.337-.152.671l-.04.166c-.013.053-.026.107-.04.16q-.119.474-.254.942c-.018.063-.036.126-.055.189l-.069.233q-.036.116-.072.232c-.024.078-.048.154-.073.231s-.05.154-.075.231-.051.153-.077.23-.052.153-.079.229l-.081.228c-.055.152-.11.3-.167.454l-.087.226q-.044.113-.088.225l-.09.225q-.091.224-.186.446l-.072.167-.064.146q-.077.176-.157.351c-.033.073-.067.147-.1.219s-.068.146-.1.219-.069.145-.1.218q-.106.218-.214.433c-.039.078-.079.154-.118.231l-.1.184c-.04.076-.081.152-.121.228l-.115.212-.058.106-.058.106q-.353.632-.738,1.246-.128.2-.259.407-.263.405-.54.8-.109.157-.221.312-.24.336-.49.665-.146.192-.3.382t-.3.378q-.305.375-.624.742l-.16.182-.161.181-.163.18-.124.134-.042.045-.166.177-.167.176q-.253.263-.513.52l-.174.17-.1.1-.1.1-.146.138-.178.167-.178.164,0,0-.138.125-.143.128-.135.119-.075.066-.107.093-.134.115-.171.144-.05.041-.143.118q-.178.146-.358.29l-.192.151q-.348.273-.705.536l-.143.1-.213.153-.173.123-.127.088-.129.089,0,0-.187.128-.066.045-.168.112-.029.019-.165.108-.073.047-.171.109-.03.019-.168.106-.067.042-.2.123-.226.137-.228.135-.229.133-.231.131-.232.129h0l-.034.021c-.219.119-.44.236-.661.351a28.883,28.883,0,0,1-3.695,1.6l0,0a29.652,29.652,0,0,1-19.833-.057h0a29.08,29.08,0,0,1-3.55-1.55q-.311-.162-.615-.33a.184.184,0,0,1-.037-.018l-.076-.042c-.087-.048-.174-.1-.261-.147l-.249-.143-.128-.074-.127-.075q-.625-.371-1.231-.771l-.2-.134q-.156-.1-.311-.212l-.208-.145-.158-.112q-.157-.113-.313-.227h0c-.1-.077-.207-.153-.31-.231l-.307-.235q-.611-.475-1.2-.982-.785-.679-1.51-1.4l-.144-.145q-.144-.145-.285-.291l-.141-.147-.14-.148q-.1-.111-.207-.223l-.2-.224q-.2-.225-.4-.454t-.39-.461q-.192-.232-.379-.467-.125-.157-.247-.315l-.121-.158q-.121-.159-.24-.319l-.118-.16-.046-.063-.071-.1-.09-.125a29.347,29.347,0,0,1-4.729-10.717c0-.021-.009-.041-.013-.061-.014-.061-.027-.123-.04-.184s-.023-.108-.033-.161-.018-.088-.027-.132c-.031-.152-.059-.3-.087-.456l-.029-.159q-.025-.145-.049-.289s0,0,0,0a29.356,29.356,0,0,1-.306-7.013c.008-.106.017-.212.026-.318q.021-.239.046-.478c.011-.106.023-.212.035-.317s.025-.212.038-.319c.027-.211.056-.423.087-.634.015-.106.032-.212.049-.318q.038-.237.08-.474c.009-.053.019-.106.028-.159q.029-.158.059-.315t.063-.316q.049-.236.1-.471c.012-.053.023-.105.035-.158q.108-.47.231-.938c.007-.026.013-.052.021-.078s.014-.052.021-.078.011-.042.017-.063l.025-.092c.01-.036.02-.072.03-.108l.031-.108.055-.191a0,0,0,0,1,0,0c.013-.045.026-.09.04-.135a29.431,29.431,0,0,1,4.545-9.085q.232-.313.473-.62.215-.274.437-.544l.018-.022.054-.065.115-.139.092-.11q.123-.145.248-.288l-.021.025-.135.168-.027.034-.126.159a28.343,28.343,0,0,0-5.152,10.3c-.017.062-.033.124-.049.186,0,.019-.01.038-.014.057q-.035.134-.067.27c-.022.088-.044.177-.064.265a28.309,28.309,0,0,0-.2,12.085l.039.19c.012.062.025.123.039.184.017.076.033.153.05.229.011.052.023.1.035.156,0,.021.01.043.015.065q.021.093.044.186a28.369,28.369,0,0,0,4.168,9.442q.094.139.192.277l.047.067.08.112.117.163a28.48,28.48,0,0,0,9.832,8.545h0a.015.015,0,0,0,.009,0c.43.227.865.445,1.307.649a28.8,28.8,0,0,0,24.255-.023h0q.634-.3,1.252-.626l.227-.122c.075-.04.15-.081.225-.122h0l.223-.125q.111-.061.222-.126.383-.22.758-.45a28.413,28.413,0,0,0,7.562-6.768l.127-.164.046-.06.129-.17q.073-.1.144-.193a28.348,28.348,0,0,0,4.89-10.771c.017-.077.034-.155.05-.232.01-.049.021-.1.03-.145,0-.007,0-.015,0-.022.01-.046.019-.092.028-.139a28.316,28.316,0,0,0-.21-12.159q-.075-.315-.158-.629-.027-.1-.056-.209a28.3,28.3,0,0,0-4.446-9.29l-.14-.191c-.047-.064-.094-.127-.142-.19l-.077-.1-.12-.157c-.062-.082-.126-.163-.19-.244l-.1-.125c-.062-.079-.126-.157-.189-.236a29.274,29.274,0,0,1,2.238,2.925q.306.458.594.925l.1.156q.143.235.281.472t.271.477q.089.16.176.32l.086.161.085.161.084.162q.126.243.247.489c.03.061.06.121.089.182l.07.146.078.165c.026.055.052.11.077.165q.229.5.44,1l.07.168c.046.112.092.225.136.338l.066.169.007.016c.039.1.077.2.116.3q.1.266.194.535l.05.145q.132.381.254.765l.052.167.059.194.058.194q.046.155.09.312.035.123.068.247c.006.022.012.045.018.067.021.078.042.157.063.235s.041.157.061.235c.026.105.052.211.077.316l.055.234,0,.007q.027.116.053.233c.018.079.035.158.052.237.01.045.019.09.029.135s.019.093.029.139l.024.117q.036.181.07.363c.011.058.022.117.032.175.019.1.037.208.054.312.007.04.013.08.02.12.018.107.035.214.051.322.008.054.017.107.024.161s.014.092.02.138q.037.259.07.518.019.157.037.315l.014.129q.028.26.052.521c.005.054.01.108.015.163l.013.163c0,.052.008.1.012.155s.007.094.01.14.006.1.01.145c0,.072.009.143.013.214l.006.113c.006.108.011.217.015.326,0,.067.006.133.008.2l0,.11c0,.024,0,.047,0,.071,0,.041,0,.082,0,.123s0,.089,0,.133,0,.092,0,.138c0,.076,0,.151,0,.226s0,.132,0,.2v.047Z" transform="translate(-148.483 -225.965)" fill="#c4a469"/>
    </g>
    <g id="Mask_Group_30" data-name="Mask Group 30" transform="translate(-4.368 -2.255)" clip-path="url(#clip-path-3)">
      <path id="Path_61899" data-name="Path 61899" d="M71.206,26.965v1.548a35.483,35.483,0,0,1-21.889,31.98c-.014,0-.025.011-.037.016-.253.1-.5.2-.759.3a35.4,35.4,0,0,1-7.541,2.007h0A36.164,36.164,0,0,1,30.125,62.8h0a35.482,35.482,0,0,1-7.449-2c-.237-.092-.474-.188-.712-.284l-.037-.016A35.6,35.6,0,0,1,7.75,49.85,35.235,35.235,0,0,1,0,28.052v-.557A35.354,35.354,0,0,1,13.433,0a34.073,34.073,0,0,0,8.106,57.151h0l.035.016c.223.1.447.2.672.291a33.963,33.963,0,0,0,7.779,2.24l0,0a34.826,34.826,0,0,0,11.025.021h0a34.2,34.2,0,0,0,7.9-2.259c.24-.1.479-.2.716-.312l.037-.016h0A34.094,34.094,0,0,0,57.806.028a35.48,35.48,0,0,1,13.4,26.937" transform="translate(4.368 2.252)" fill="#c4a469"/>
    </g>
    <path id="Path_61902" data-name="Path 61902" d="M559.067,1207.28v.381q0,.664-.009,1.317c-.018,1.051-.057,2.083-.134,3.1-.081,1.135-.2,2.255-.387,3.356a25.142,25.142,0,0,1-1.84,6.263c-1.964,4.372-5.483,8.435-11.639,12.24l-.12.076-.062.041-.018.011-.083-.052-.124-.076c-6.155-3.806-9.674-7.866-11.639-12.24a25.079,25.079,0,0,1-1.84-6.265c-.182-1.1-.306-2.218-.387-3.354-.076-1.021-.115-2.056-.134-3.106-.007-.435-.009-.874-.009-1.314v-.381h.385c.138.009.276.019.414.025,1.082.06,2.169.069,3.254.025.726-.03,1.449-.08,2.172-.156a12.146,12.146,0,0,0,7.7-3.6l.173-.19.113-.131h.007l.014.014.1.114.173.193a12.14,12.14,0,0,0,7.7,3.6,34.186,34.186,0,0,0,4.723.163c.235-.009.47-.018.7-.032.141-.007.279-.016.417-.025Z" transform="translate(-509.252 -1154.927)" fill="#c4a469" fill-rule="evenodd"/>
    <path id="Path_61903" data-name="Path 61903" d="M546.128,1317.9c.066,4.508.551,9.7,2.306,13.609a28.412,28.412,0,0,0,6.195,8.162l-.484-15.044Z" transform="translate(-524.131 -1264.98)" fill="#ac1822" fill-rule="evenodd"/>
    <path id="Path_61904" data-name="Path 61904" d="M744.571,1485.117l.484,15.044a38.8,38.8,0,0,0,5.1,3.741,38.724,38.724,0,0,0,5.1-3.741l.363-15.044Z" transform="translate(-714.558 -1425.472)" fill="#fff" fill-rule="evenodd"/>
    <path id="Path_61905" data-name="Path 61905" d="M1017.689,1316.848l-8.141,6.769-.363,15.044a28.343,28.343,0,0,0,6.2-8.16c1.755-3.911,2.234-9.146,2.3-13.653Z" transform="translate(-968.483 -1263.974)" fill="#316533" fill-rule="evenodd"/>
    <path id="Path_61906" data-name="Path 61906" d="M559.726,1221.649s-3.145,4.768-13.6,3.874l8.016,6.728h11.054l8.141-6.769s-9.507,1.234-13.606-3.831Z" transform="translate(-524.125 -1172.606)" fill="#040504" fill-rule="evenodd"/>
  </g>
</svg>
