<svg xmlns="http://www.w3.org/2000/svg" width="216.908" height="144.957" viewBox="0 0 216.908 144.957">
  <path id="Path_61901" data-name="Path 61901" d="M564.111,368.673v0a7.244,7.244,0,0,0-2.076-.231c-2.539-.036-5.094,0-7.642-.036-1.611-.01-2-.346-2.514-1.788-.95-2.61-1.879-5.234-2.888-7.821-1.891-4.874-3.816-9.725-5.727-14.589-1.182-2.99-2.4-5.982-3.56-8.985-.916-2.414-1.728-4.874-2.665-7.277-1.9-4.874-3.861-9.713-5.774-14.589-.429-1.1-.766-2.229-1.042-3.039,1.3-1.455,2.47-2.585,3.445-3.88.916-1.214,1.82-2.713,1.147-4.192a9.486,9.486,0,0,1-.593-3.674,5.913,5.913,0,0,0-3.083-5.29,9.255,9.255,0,0,1-1.334-.728,6.865,6.865,0,0,0-6.727-.682,5.467,5.467,0,0,0-3.814,5.359c-.012,1.491.207,2.982.335,4.586a5.215,5.215,0,0,1-1.194.336,55.779,55.779,0,0,1-12-.532,49.535,49.535,0,0,1-9.834-3.577c-3.3-1.432-6.527-3.027-10.122-3.627a27.667,27.667,0,0,1-4.466-.819c-2.514-.844-5.043-.486-7.549-.322-1.994.138-3.952.577-6.18.91.394-1.57.778-2.83,1.009-4.123a70.954,70.954,0,0,0,1.089-7.309c.244-3.247-.638-6.389-1.369-9.541a13.82,13.82,0,0,0-6.215-9.136,2.233,2.233,0,0,1-1.219-2.151c.047-1.592.012-3.176.012-4.768a3.04,3.04,0,0,1,.975-2.345c1.8-1.768,1.946-5.683.5-7.382A8.659,8.659,0,0,0,461,245.793a10.008,10.008,0,0,0-3.026-1.548,5.545,5.545,0,0,0-4.964,9.357,3.734,3.734,0,0,1,1.091,2.09,47.561,47.561,0,0,1,.047,4.961,2.524,2.524,0,0,1-1.206,2.24c-4.22,2.507-5.831,6.69-7,11.066a32.185,32.185,0,0,0-.546,9.666,20.089,20.089,0,0,0,2.492,10.026,6.815,6.815,0,0,1,.443,1.71,9.277,9.277,0,0,1-1.8-.243,21.413,21.413,0,0,0-6.633-1.408c-2.017-.069-4.023-.613-6.03-.566a25.138,25.138,0,0,0-6.562.866c-3.316.969-6.527,2.3-9.763,3.546-2.6,1.005-5.148,2.148-7.734,3.164-4.255,1.675-8.743,1.548-13.207,1.525a7.2,7.2,0,0,1-1.462-.392c.116-.4.152-.647.232-.878a7.122,7.122,0,0,0-2.689-7.68,19.6,19.6,0,0,0-2.354-1.26,6.825,6.825,0,0,0-7.387.716,5.891,5.891,0,0,0-2.236,6.031,1.7,1.7,0,0,1-.662,1.825,1.758,1.758,0,0,0-.546,1.432,8.114,8.114,0,0,0,2.078,4.2,35.063,35.063,0,0,0,3.56,3.13,1.752,1.752,0,0,1,.185.115,1.387,1.387,0,0,1,.345,1.938.037.037,0,0,1-.01.014c-.847,1.768-1.566,3.605-2.285,5.43-2.354,6.007-4.649,12.023-7.015,18.03-1.968,5-4.023,9.98-6.02,14.969-2.191,5.452-4.314,10.927-6.562,16.357-1.056,2.563-.766,2.149-3.154,2.183-3.243.057-6.505,0-9.753.022-1.842.012-2.1.358-1.808,2.183.313,1.93,1.611,3.281,2.778,4.667a35.491,35.491,0,0,0,9.775,7.439,46.529,46.529,0,0,0,11.676,4.2c1.472.382,3.051.429,4.442.866,2.654.856,5.392.682,8.059,1.121,4.3.692,8.581-.647,12.892-.67a.539.539,0,0,0,.187-.036c2.8-.7,5.658-1.3,8.418-2.159a40.523,40.523,0,0,0,11.735-5.153,23.717,23.717,0,0,0,6.631-6.387,17.042,17.042,0,0,0,1.531-3.223c.416-1.109.185-1.73-.906-2.126a11.2,11.2,0,0,0-3.3-.716c-2.411-.115-4.834-.069-7.257-.034a2.207,2.207,0,0,1-2.39-1.7c-1-2.784-2.11-5.543-3.176-8.3-.556-1.408-1.147-2.794-1.682-4.2-1.273-3.292-2.514-6.593-3.767-9.9-1.728-4.55-3.432-9.1-5.211-13.627-1.635-4.17-3.351-8.3-5-12.464-.81-2.045-1.531-4.123-2.388-6.48.857,0,1.46-.045,2.076,0a70.888,70.888,0,0,0,17.8-1.766c1.485-.3,2.969-.67,4.43-1.038,2.2-.544,4.4-1.167,6.6-1.687,1.588-.38,3.223-.6,4.834-.923a54.947,54.947,0,0,1,6.261-1.258c3.607-.312,7.246-.417,10.878-.461a24.944,24.944,0,0,1,10.516,2.068,8.938,8.938,0,0,0,6.471.115,30.392,30.392,0,0,1,5.949-1.73,78.358,78.358,0,0,1,18.819.751c.185.034.359.127.544.174,1.578.4,3.154.831,4.754,1.2a36.3,36.3,0,0,1,4.43.969c3.944,1.513,8.128,1.837,12.2,2.725a56.018,56.018,0,0,0,13.323.856c.5-.012,1,.044,1.8.091a10.155,10.155,0,0,1-.29,1.457c-.672,1.766-1.389,3.522-2.084,5.29-1.125,2.818-2.216,5.65-3.357,8.454-1.728,4.216-3.526,8.386-5.211,12.614-1.389,3.451-2.642,6.963-3.989,10.441-1.866,4.827-4.371,9.4-5.788,14.417a19.569,19.569,0,0,1-.847,2.1,2.688,2.688,0,0,1-2.884,1.873c-3.241-.125-6.505-.045-9.751-.022-2.147.012-2.654.716-1.763,2.691a21.884,21.884,0,0,0,2.216,3.731c2.191,3.073,5.427,4.932,8.522,6.862a56.759,56.759,0,0,0,7.537,3.512,28.092,28.092,0,0,0,4.285,1.467c1.773.439,3.607.611,5.392,1.016a60.822,60.822,0,0,0,11.3,1.236c1.935.081,3.9-.473,5.855-.508a35.067,35.067,0,0,0,9.9-1.572c3.176-.993,6.424-1.859,9.495-3.107a32.662,32.662,0,0,0,9.377-6.051,14.128,14.128,0,0,0,3.932-5.962c.556-1.614.1-2.575-1.531-3.083M387.376,321.062q-.033,21.8-.069,43.6c0,4.309.012,3.755-3.885,3.767q-6.7.033-13.38-.012c-.754,0-1.5-.069-2.539-.127a9.678,9.678,0,0,1,.335-1.73c2.573-6.375,5.183-12.739,7.758-19.114,1.8-4.459,3.536-8.93,5.3-13.4,1.808-4.574,3.607-9.148,5.441-13.71.116-.3.463-.508.695-.763l.347.2Zm6.03,3.039c1.056,2.7,2.031,5.428,3.063,8.141,1.4,3.72,2.778,7.441,4.243,11.135,1.113,2.83,2.376,5.59,3.489,8.41.81,2.055,1.438,4.192,2.238,6.247,1.273,3.281,2.632,6.539,4.1,10.176-.881.093-1.541.221-2.214.221q-7.637.015-15.285-.024c-2.191,0-2.364-.184-2.364-2.422q0-19.039-.024-38.07c0-2.357-.057-4.7-.069-7.046,0-.682.093-1.351.14-2.021l.416-.081c.753,1.778,1.566,3.532,2.263,5.335m132.446,42.293v0c-.1,1.7-.359,1.987-2.053,2-3.952.034-7.906.034-11.849.034-1.531,0-3.063.012-4.592-.022a8.654,8.654,0,0,1-1.416-.324c.4-1.109.741-2.1,1.123-3.073,1.694-4.342,3.359-8.707,5.116-13.033,2.017-4.965,4.149-9.9,6.168-14.864,1.135-2.808,2.1-5.7,3.223-8.5,1.219-3.037,2.529-6.029,3.8-9.043l.522.057c.047.74.128,1.479.128,2.219q-.07,21.136-.15,42.262c0,.763.022,1.525-.024,2.286m22.239,1.954a7.53,7.53,0,0,1-1.332.081h-14.72c-.384,0-.766,0-1.148-.012-.823-.034-1.322-.417-1.322-1.295-.012-.312-.012-.635-.012-.947q0-22.368.024-44.734c0-.67.057-1.329.091-2h.418v.012q2.331,6,4.673,11.995c1.6,4.042,3.258,8.062,4.823,12.126,1.265,3.292,2.388,6.642,3.664,9.933,1.219,3.176,2.563,6.308,3.851,9.458.546,1.341,1.1,2.679,1.635,4.02.347.842.2,1.2-.646,1.361" transform="translate(-348.961 -244.152)" fill="#c4a469"/>
</svg>
