<svg xmlns="http://www.w3.org/2000/svg" width="358.657" height="318.412" viewBox="0 0 358.657 318.412">
  <path id="Path_61899" data-name="Path 61899" d="M358.657,135.809V143.6A178.725,178.725,0,0,1,248.4,304.682c-.069.022-.128.057-.185.081-1.273.52-2.535,1.028-3.822,1.523a178.31,178.31,0,0,1-37.985,10.107H206.4a182.153,182.153,0,0,1-54.661-.081h-.012A178.721,178.721,0,0,1,114.2,306.264c-1.194-.463-2.388-.947-3.585-1.432-.057-.024-.116-.047-.185-.081a179.3,179.3,0,0,1-71.4-53.675A177.474,177.474,0,0,1,0,141.283v-2.808A178.076,178.076,0,0,1,67.659,0,172.016,172.016,0,0,0,21.987,60.467c-39.153,86.588-.424,188.4,86.5,227.4v0c.059.022.116.057.175.081,1.123.5,2.25.991,3.386,1.467A171.072,171.072,0,0,0,151.228,300.7l.01.01a175.414,175.414,0,0,0,55.532.105h.01a172.286,172.286,0,0,0,39.784-11.378c1.206-.51,2.413-1.028,3.607-1.572.057-.022.116-.047.185-.081v0A171.728,171.728,0,0,0,291.161.128a178.711,178.711,0,0,1,67.5,135.68" transform="translate(0 -0.003)" fill="#c79c55"/>
</svg>
