<svg xmlns="http://www.w3.org/2000/svg" width="296.241" height="244.183" viewBox="0 0 296.241 244.183">
  <path id="Path_61900" data-name="Path 61900" d="M449.928,325.722v.065q0,.622-.006,1.242-.009,1.256-.043,2.511c-.008.37-.02.742-.033,1.113,0,.1-.006.2-.01.308-.012.36-.026.722-.043,1.082-.016.415-.037.829-.057,1.244v.006c-.018.358-.039.714-.059,1.07-.008.144-.018.289-.026.435-.02.328-.043.657-.065.985q-.04.622-.089,1.242c-.028.376-.059.751-.089,1.127-.039.453-.079.908-.122,1.362q-.055.583-.114,1.165c-.006.055-.012.107-.016.162-.041.378-.079.757-.122,1.135q-.07.616-.142,1.232-.07.592-.146,1.184c-.008.069-.016.136-.026.2-.045.358-.093.714-.142,1.07q-.082.613-.173,1.224-.076.537-.158,1.074-.213,1.384-.449,2.76c-.051.291-.1.583-.152.872q-.341,1.906-.729,3.8c-.081.392-.163.783-.248,1.175q-.363,1.7-.766,3.379c-.067.279-.134.558-.2.838s-.132.538-.2.807q-.6,2.385-1.279,4.746c-.089.318-.183.635-.276.953q-.174.586-.349,1.171t-.362,1.167c-.122.39-.244.777-.37,1.165s-.25.775-.378,1.161-.258.773-.39,1.157-.264.771-.4,1.155-.27.767-.406,1.149c-.276.765-.556,1.529-.843,2.288q-.216.571-.437,1.139t-.445,1.135q-.225.567-.453,1.131-.46,1.129-.936,2.248c-.12.281-.24.56-.362.84-.106.245-.213.492-.321.736q-.39.886-.79,1.766c-.169.368-.337.738-.51,1.1s-.343.734-.518,1.1-.349.732-.526,1.1q-.533,1.1-1.08,2.179c-.2.39-.4.777-.6,1.163q-.241.464-.483.925c-.2.384-.406.767-.609,1.147q-.289.537-.581,1.068c-.1.178-.195.356-.294.532s-.195.354-.294.532q-1.779,3.183-3.717,6.276-.646,1.029-1.306,2.049-1.325,2.042-2.717,4.038-.551.792-1.113,1.574-1.209,1.69-2.47,3.348-.737.968-1.491,1.926t-1.521,1.9q-1.538,1.891-3.144,3.737c-.266.305-.536.613-.806.916s-.54.609-.812.912-.544.6-.818.9l-.623.676c-.069.075-.138.15-.209.225-.276.3-.556.6-.837.892s-.559.591-.841.884q-1.277,1.323-2.583,2.62c-.29.287-.581.573-.875.858-.175.172-.351.342-.528.512s-.339.328-.51.49q-.366.349-.735.7-.448.422-.9.84t-.9.825a.056.056,0,0,0-.012.01q-.347.316-.7.629c-.24.214-.479.431-.721.643q-.338.3-.68.6l-.378.33c-.179.156-.359.312-.54.467q-.335.291-.676.579c-.284.245-.571.486-.859.726-.083.071-.167.14-.25.208-.24.2-.479.4-.719.6q-.9.737-1.8,1.461-.481.382-.965.763-1.752,1.375-3.552,2.7c-.24.176-.479.352-.719.526q-.533.388-1.07.771-.433.31-.871.619c-.211.15-.424.3-.638.443s-.433.3-.65.449a.058.058,0,0,1-.024.016q-.469.325-.942.643c-.11.077-.221.152-.333.225q-.42.285-.845.564l-.148.1c-.276.184-.554.364-.833.546l-.366.237q-.43.276-.859.55c-.051.034-.1.065-.15.1q-.423.267-.847.532c-.112.073-.223.142-.337.21-.335.208-.67.417-1.007.621-.378.233-.758.461-1.139.69s-.766.455-1.15.68-.768.449-1.156.672-.774.443-1.164.661-.778.435-1.17.651a0,0,0,0,1,0,0l-.173.1c-1.1.6-2.216,1.19-3.329,1.766a145.435,145.435,0,0,1-18.61,8.062l-.024.012a149.352,149.352,0,0,1-99.894-.289h-.01a146.455,146.455,0,0,1-17.88-7.807q-1.566-.813-3.1-1.663a.931.931,0,0,1-.185-.093l-.384-.212c-.441-.243-.877-.488-1.314-.738-.418-.237-.837-.477-1.253-.718-.215-.123-.431-.249-.644-.374s-.428-.249-.642-.376q-3.147-1.866-6.2-3.884-.506-.334-1.007-.674-.786-.528-1.566-1.07c-.349-.241-.7-.486-1.048-.73-.266-.188-.532-.378-.8-.564q-.792-.571-1.576-1.145h0c-.524-.386-1.044-.773-1.562-1.165s-1.034-.787-1.548-1.186q-3.077-2.394-6.032-4.946-3.954-3.42-7.608-7.052-.366-.361-.727-.728-.725-.728-1.438-1.467c-.236-.245-.473-.492-.709-.738s-.469-.5-.7-.744q-.527-.558-1.044-1.123t-1.03-1.131q-1.024-1.135-2.019-2.286t-1.964-2.32q-.969-1.168-1.909-2.351-.628-.789-1.243-1.586c-.205-.265-.408-.532-.611-.8q-.609-.8-1.206-1.606-.3-.4-.593-.807c-.079-.105-.154-.21-.229-.316-.12-.164-.238-.33-.357-.5-.152-.21-.3-.421-.451-.629a147.819,147.819,0,0,1-23.821-53.982c-.022-.105-.045-.208-.065-.31-.069-.31-.134-.619-.2-.929-.059-.273-.114-.542-.167-.813-.047-.223-.091-.443-.134-.664-.154-.765-.3-1.531-.439-2.3-.049-.267-.1-.534-.144-.8q-.128-.728-.248-1.455s0,0,0,0a147.864,147.864,0,0,1-1.544-35.323c.043-.534.085-1.068.132-1.6q.1-1.2.23-2.409c.057-.532.116-1.066.177-1.6s.124-1.07.193-1.606c.134-1.064.28-2.13.439-3.192.077-.534.16-1.068.246-1.6q.192-1.2.4-2.387c.047-.267.093-.534.142-.8q.146-.8.3-1.586t.317-1.59q.247-1.19.508-2.373c.059-.265.118-.53.179-.793q.542-2.37,1.162-4.726c.035-.131.067-.263.1-.392s.069-.263.106-.395c.028-.105.057-.212.087-.318.043-.156.085-.31.128-.463.049-.18.1-.362.152-.544s.1-.362.154-.544c.091-.322.183-.641.276-.963a.012.012,0,0,1,0-.008c.065-.227.132-.455.2-.682a148.239,148.239,0,0,1,22.893-45.758q1.17-1.578,2.382-3.124,1.082-1.378,2.2-2.739l.091-.109c.089-.109.181-.219.27-.326q.289-.349.581-.7c.154-.184.309-.368.465-.552q.618-.731,1.247-1.453l-.1.127q-.341.422-.68.844l-.138.172c-.213.267-.426.536-.636.8a142.764,142.764,0,0,0-25.949,51.9c-.085.312-.167.623-.246.937-.024.1-.051.19-.073.287q-.174.677-.339,1.358c-.112.445-.219.892-.323,1.337a142.588,142.588,0,0,0-1,60.873l.195.959c.061.312.128.621.195.929q.125.577.252,1.153c.057.263.118.524.177.787.024.107.051.216.075.328q.107.467.219.935a142.888,142.888,0,0,0,20.994,47.561c.317.467.64.935.965,1.4l.238.34c.134.19.266.378.4.566.195.275.39.546.587.819a143.448,143.448,0,0,0,49.523,43.039h0a.073.073,0,0,0,.045.022c2.167,1.143,4.358,2.242,6.584,3.269a145.041,145.041,0,0,0,122.17-.115h.012q3.193-1.49,6.308-3.154c.382-.2.762-.4,1.141-.613s.755-.407,1.131-.615a.007.007,0,0,1,0,0q.564-.309,1.123-.627t1.117-.635q1.931-1.108,3.816-2.268a143.1,143.1,0,0,0,38.09-34.091c.215-.275.429-.552.64-.827q.119-.152.232-.3c.219-.287.435-.573.65-.858q.366-.485.723-.973a142.787,142.787,0,0,0,24.629-54.253c.087-.388.171-.779.254-1.169.053-.245.1-.488.152-.732.008-.036.016-.075.022-.111.049-.233.1-.465.142-.7a142.621,142.621,0,0,0-1.058-61.245q-.378-1.587-.794-3.168-.137-.528-.28-1.054a142.57,142.57,0,0,0-22.4-46.792q-.353-.483-.707-.963c-.236-.322-.473-.639-.713-.957-.128-.172-.256-.342-.386-.512q-.3-.4-.605-.793c-.315-.411-.634-.821-.957-1.228-.162-.21-.329-.421-.5-.629-.315-.4-.634-.793-.953-1.188a147.428,147.428,0,0,1,11.272,14.732q1.541,2.306,2.994,4.661c.163.263.323.524.481.787q.719,1.184,1.414,2.377t1.367,2.4q.448.8.886,1.612c.146.271.29.54.435.811s.288.542.431.813.284.544.424.815q.634,1.226,1.243,2.462c.152.305.3.611.449.918l.353.734c.132.277.262.554.394.831s.26.554.388.832q1.155,2.5,2.216,5.044.177.422.351.848c.234.566.461,1.133.686,1.7.112.283.223.569.335.854.012.028.022.057.033.083.2.508.39,1.018.583,1.527q.5,1.341.979,2.693c.085.241.171.486.254.728q.667,1.918,1.277,3.854c.089.281.177.562.264.844q.149.486.3.975t.29.977q.231.783.453,1.57.177.619.343,1.242c.033.113.063.225.091.338.108.395.211.789.315,1.184s.207.791.307,1.186c.132.53.264,1.06.39,1.592q.14.589.278,1.177c0,.014.006.026.008.036q.137.586.268,1.173c.089.4.175.8.26,1.194.049.225.1.451.144.678s.1.467.144.7c.041.2.079.392.12.591q.183.913.351,1.827c.057.293.11.587.162.88.093.524.185,1.046.274,1.57.035.2.067.4.1.6.089.54.177,1.08.258,1.62.043.271.083.54.122.811.035.231.069.463.1.694q.189,1.3.351,2.61.1.792.187,1.584c.024.218.049.435.073.651q.143,1.311.26,2.624c.026.273.049.546.073.821l.067.819c.02.261.041.52.059.779.018.235.035.471.051.706s.033.486.049.728c.022.36.045.72.065,1.078l.03.571c.03.546.055,1.094.077,1.641.014.336.028.672.039,1.005l.018.556c0,.119.008.237.01.356.006.206.012.413.016.619.006.225.01.449.014.672s.01.463.012.694c.006.38.01.759.012,1.139,0,.332,0,.664,0,1v.237Z" transform="translate(-153.687 -229.083)" fill="#c79c55"/>
</svg>
