<svg xmlns="http://www.w3.org/2000/svg" xmlns:xlink="http://www.w3.org/1999/xlink" width="27.83" height="27.785" viewBox="0 0 27.83 27.785">
  <defs>
    <clipPath id="clip-path">
      <rect id="Rectangle_35638" data-name="Rectangle 35638" width="27.83" height="27.785" fill="#ebe5d9"/>
    </clipPath>
  </defs>
  <g id="Group_97968" data-name="Group 97968" clip-path="url(#clip-path)">
    <path id="Path_61911" data-name="Path 61911" d="M0,13.832A13.831,13.831,0,0,1,13.981,0,13.772,13.772,0,0,1,27.829,14.03,13.738,13.738,0,0,1,13.891,27.785,13.806,13.806,0,0,1,0,13.832M13.956,26.118A12.164,12.164,0,0,0,26.125,13.91,11.985,11.985,0,0,0,13.916,1.742,11.984,11.984,0,0,0,1.724,13.882,12.164,12.164,0,0,0,13.956,26.118" transform="translate(0 0)" fill="#ebe5d9"/>
    <path id="Path_61912" data-name="Path 61912" d="M57.122,55.988a2.077,2.077,0,0,1-.306.493q-3.42,3.442-6.861,6.864a.811.811,0,0,1-1.269-.01q-1.692-1.661-3.354-3.353a.805.805,0,0,1-.071-1.229.825.825,0,0,1,1.238.057c.851.81,1.691,1.632,2.513,2.471.248.254.39.234.628,0q2.875-2.877,5.773-5.732a2.434,2.434,0,0,1,.547-.42c.522-.279,1.163.123,1.162.864" transform="translate(-37.145 -45.419)" fill="#ebe5d9"/>
  </g>
</svg>
