<svg xmlns="http://www.w3.org/2000/svg" width="22.907" height="26.169" viewBox="0 0 22.907 26.169">
  <path id="Path_67658" data-name="Path 67658" d="M1.574,20.494H6.766v3.594H1.574ZM8.4,20.486h5.613v3.592H8.4Zm7.241-.01h5.2v3.6h-5.2ZM1.57,14.862h5.2v4H1.57Zm14.068,0h5.209V18.85H15.638Zm-7.239,0h5.615v4H8.4ZM1.559,9.638H6.768v3.576H1.559Zm6.846,0h5.6v3.6H8.4Zm7.237,0h5.2v3.6h-5.2ZM1.565,4.8H20.849V8H1.565ZM4.79,0V3.208H0V25.669H22.407V3.17h-4.8V0H16.04V3.164H6.356V0Z" transform="translate(0.25 0.25)" fill="#b39d74" stroke="#b39d74" stroke-width="0.5"/>
</svg>
