<svg xmlns="http://www.w3.org/2000/svg" xmlns:xlink="http://www.w3.org/1999/xlink" width="31.001" height="31" viewBox="0 0 31.001 31">
  <defs>
    <clipPath id="clip-path">
      <rect id="Rectangle_38269" data-name="Rectangle 38269" width="31.001" height="31" fill="#b39d74"/>
    </clipPath>
  </defs>
  <g id="Travel_Block_Icon" clip-path="url(#clip-path)">
    <path id="Path_67545" data-name="Path 67545" d="M154.334,141.127l1.443,1.443.453-.239Zm0,0,1.443,1.443.453-.239Zm10.057-3.092a16.141,16.141,0,0,0-2.006-.021,3.963,3.963,0,0,0-1.758.525c-.578.3-1.161.6-1.737.912a.456.456,0,0,1-.417.022q-2.7-.967-5.4-1.922a.424.424,0,0,0-.274-.02q-.73.3-1.454.605l1.016,1.016c.175-.07.348-.137.521-.2a.387.387,0,0,1,.232.036c1.758.623,3.518,1.241,5.273,1.879a.836.836,0,0,0,.754-.048c.8-.434,1.6-.864,2.423-1.24a3.581,3.581,0,0,1,1.143-.253,13.5,13.5,0,0,1,1.384-.01c.423,0,.6.327.408.705a5.56,5.56,0,0,1-2.448,2.427q-2.1,1.1-4.2,2.2l.977.976q2-1.047,3.994-2.1a6.613,6.613,0,0,0,2.9-2.972,1.72,1.72,0,0,0-1.328-2.517m-8.614,4.535.453-.239-1.9-1.2Z" transform="translate(-141.658 -128.717)" fill="#b39d74"/>
    <path id="Path_67546" data-name="Path 67546" d="M116.558,163.162l-2.02,1.054a.573.573,0,0,1-.255.055c-1.08,0-2.16.005-3.24,0a.438.438,0,0,1-.283-.125c-.867-.931-1.73-1.871-2.6-2.8-.232-.25-.467-.5-.712-.754h0c.741-.491,1.465-.973,2.2-1.445a.337.337,0,0,1,.264-.008c.429.17.849.365,1.277.529a.436.436,0,0,0,.307-.008c.329-.153.647-.328,1.017-.52l-4.787-3.015,1.045-.442.217-.092,4.522,4.522q-1.02.538-2.034,1.068a.247.247,0,0,1-.182-.013c-.342-.146-.69-.282-1.016-.456a.539.539,0,0,0-.754.109l-.008.011v0c.619.672,1.243,1.352,1.874,2.025a.352.352,0,0,0,.236.079c.767.006,1.533.008,2.3,0a.867.867,0,0,0,.379-.091l1.278-.666Z" transform="translate(-100.576 -145.635)" fill="#b39d74"/>
    <path id="Path_67547" data-name="Path 67547" d="M117.029,327.856H102.962v-1.3h12.762Z" transform="translate(-96.373 -305.655)" fill="#b39d74"/>
    <path id="Path_67548" data-name="Path 67548" d="M333.952,326.551v1.3h-1.945l-1.3-1.3Z" transform="translate(-309.54 -305.655)" fill="#b39d74"/>
    <path id="Path_67549" data-name="Path 67549" d="M16.143,31.6A15.456,15.456,0,0,1,5.214,5.213,15.456,15.456,0,1,1,27.073,27.071,15.355,15.355,0,0,1,16.143,31.6m0-29.633a14.176,14.176,0,0,0-10.024,24.2A14.176,14.176,0,1,0,26.168,6.118,14.084,14.084,0,0,0,16.143,1.966" transform="translate(-0.643 -0.642)" fill="#b39d74"/>
    <rect id="Rectangle_38268" data-name="Rectangle 38268" width="1.28" height="29.657" transform="translate(4.562 5.467) rotate(-45)" fill="#b39d74"/>
    <path id="Path_67550" data-name="Path 67550" d="M157.048,163.071l1.975,1.975-2.671-1.7.7-.28" transform="translate(-146.347 -152.636)" fill="#b39d74"/>
  </g>
</svg>
