<svg id="Updated_Icon" xmlns="http://www.w3.org/2000/svg" xmlns:xlink="http://www.w3.org/1999/xlink" width="30.311" height="28.109" viewBox="0 0 30.311 28.109">
  <defs>
    <clipPath id="clip-path">
      <rect id="Rectangle_52859" data-name="Rectangle 52859" width="30.311" height="28.109" fill="#0b3443" stroke="#fff" stroke-width="0.9"/>
    </clipPath>
  </defs>
  <g id="Group_109442" data-name="Group 109442" clip-path="url(#clip-path)">
    <path id="Path_91569" data-name="Path 91569" d="M3.014,6.909c1.937-1.691,3.5-3.844,5.746-5.173C15.227-2.1,23.938.727,27.428,7.208c.513.953,1.371,2.452.064,3.187-1.715.964-2.326-1.226-2.994-2.271A10.894,10.894,0,0,0,11.821,3.587C9.1,4.57,7.228,7.057,5.229,9.022H8.7a3.1,3.1,0,0,1,.908.4,1.509,1.509,0,0,1-.534,2.489,45.282,45.282,0,0,1-7.324.132C.969,11.976.2,11.665.093,10.784c-.282-2.34.179-5.3.047-7.7a1.5,1.5,0,0,1,2.367-.745,3.655,3.655,0,0,1,.507.8Z" transform="translate(0.001 0)" fill="#0b3443" stroke="#fff" stroke-width="0.9"/>
    <path id="Path_91570" data-name="Path 91570" d="M35.607,84.565c-.176-.044-.2.073-.3.15-1.818,1.392-3.084,3.431-5.2,4.762-6.372,4.006-14.959,1.363-18.7-4.92-.433-.729-1.225-2.054-.888-2.884a2,2,0,0,1,1-.807c1.61-.334,1.768,1.054,2.4,2.081a11,11,0,0,0,11.8,5.172c3.309-.787,5.392-3.468,7.668-5.767H29.919a3.06,3.06,0,0,1-.907-.4,1.476,1.476,0,0,1,.533-2.488,45.3,45.3,0,0,1,7.324-.132c.863.074,1.545.418,1.66,1.359a51.451,51.451,0,0,1-.047,7.5,1.465,1.465,0,0,1-2.365.843,2.12,2.12,0,0,1-.51-.7Z" transform="translate(-8.331 -63.27)" fill="#0b3443" stroke="#fff" stroke-width="0.9"/>
  </g>
</svg>
