<svg id="Group_96959" data-name="Group 96959" xmlns="http://www.w3.org/2000/svg" xmlns:xlink="http://www.w3.org/1999/xlink" width="25" height="25.015" viewBox="0 0 25 25.015">
  <defs>
    <clipPath id="clip-path">
      <rect id="Rectangle_35254" data-name="Rectangle 35254" width="25" height="25.015" fill="#577c8d"/>
    </clipPath>
  </defs>
  <g id="Group_96960" data-name="Group 96960" clip-path="url(#clip-path)">
    <path id="Path_61063" data-name="Path 61063" d="M12.477,108.988q-5.4,0-10.8,0a1.5,1.5,0,0,1-1.667-1.769,7.6,7.6,0,0,1,4.734-6.931,7.9,7.9,0,0,1,3.236-.659c3.105,0,6.211-.027,9.316.026a7.7,7.7,0,0,1,5.164,2.027,7.523,7.523,0,0,1,2.382,4.3A13.011,13.011,0,0,1,25,107.413,1.547,1.547,0,0,1,23.438,109c-3.653-.032-7.307-.013-10.961-.013m.021-1.524H22.913c.091,0,.183,0,.274,0,.2.01.292-.085.266-.284A8.911,8.911,0,0,0,23.3,106.1a6.187,6.187,0,0,0-2.627-3.838,5.634,5.634,0,0,0-2.915-1.014c-1.669-.045-3.339-.055-5.009-.054-1.865,0-3.733-.013-5.6.064a5.7,5.7,0,0,0-3.888,1.878,6.33,6.33,0,0,0-1.706,3.859c-.038.361.021.48.409.478,3.511-.014,7.022-.008,10.532-.008" transform="translate(0 -83.986)" fill="#577c8d"/>
    <path id="Path_61064" data-name="Path 61064" d="M48.883,7.035a7.025,7.025,0,1,1-14.05-.077,7.025,7.025,0,0,1,14.05.077m-1.541-.074a5.487,5.487,0,0,0-10.973.077,5.487,5.487,0,1,0,10.973-.077" transform="translate(-29.365 0)" fill="#577c8d"/>
  </g>
</svg>
