<svg xmlns="http://www.w3.org/2000/svg" width="78.122" height="72.825" viewBox="0 0 78.122 72.825">
  <g id="Yasir_Logo_SVG" transform="translate(0 -0.007)">
    <g id="Group_109416" data-name="Group 109416" transform="translate(10.507 0.007)">
      <path id="Path_87594" data-name="Path 87594" d="M644.77,15.954,656.962,3.763,653.909.711a1.987,1.987,0,0,0-2.81,0l0,0-6.328,6.328-4.75-4.751L635.56,6.746l9.21,9.207Z" transform="translate(-599.854 -0.119)" fill="#c0cae3"/>
      <path id="Path_87595" data-name="Path 87595" d="M518.166,261.522l-2.576-2.575,6.468-6.467,4.458,4.459-4.583,4.583a2.664,2.664,0,0,1-3.768,0h0" transform="translate(-488.607 -234.122)" fill="#8397c9"/>
      <rect id="Rectangle_52803" data-name="Rectangle 52803" width="8.276" height="6.304" transform="translate(34.03 17.778) rotate(-45)" fill="#8397c9"/>
      <path id="Path_87596" data-name="Path 87596" d="M344.29.625a2.015,2.015,0,0,0-2.85,0L321.923,20.143l-4.765-4.764L312.7,19.836l4.765,4.765,0,0,3.041,3.041a2,2,0,0,0,2.834,0h0L347.322,3.659,344.29.625Z" transform="translate(-300.47 -0.033)" fill="#4a66b0"/>
      <path id="Path_87597" data-name="Path 87597" d="M181.078,3.633,178.041.6A2.01,2.01,0,0,0,175.2.6L155.685,20.11,150.377,14.8a2.009,2.009,0,0,0-2.839,0L144.5,17.84l9.769,9.77a2.007,2.007,0,0,0,2.839,0h0l3.039-3.039,0,0Z" transform="translate(-144.5 -0.007)" fill="#133698"/>
    </g>
    <g id="Group_109418" data-name="Group 109418" transform="translate(0 36.398)">
      <path id="Path_91552" data-name="Path 91552" d="M8.959,791.845a10.385,10.385,0,0,1-3.435-.659,11.332,11.332,0,0,1-3.434-1.939l1.6-3.2q1.352.428,2.4.659a9.224,9.224,0,0,0,1.976.232,7.268,7.268,0,0,0,3.5-.818,6.164,6.164,0,0,0,2.367-2.208,5.728,5.728,0,0,0,.854-3.06A4.705,4.705,0,0,0,14.474,779a8.143,8.143,0,0,0-.818-1.459q-.5-.712-1.1-1.638l6.727,3.382v1.565a11.363,11.363,0,0,1-.356,2.669,12.85,12.85,0,0,1-1.121,2.919,11.65,11.65,0,0,1-1.976,2.7,8.873,8.873,0,0,1-2.919,1.976,9.986,9.986,0,0,1-3.95.729" transform="translate(-1.938 -755.874)" fill="#09183d"/>
      <path id="Path_91553" data-name="Path 91553" d="M124.035,678.641a10.309,10.309,0,0,1-2.332-.249,7.541,7.541,0,0,1-2.01-.765,8.293,8.293,0,0,1-1.762-1.334,17,17,0,0,1-1.691-1.957l-4.52-6.194,3.916-4.841,4.591,7.937a12.639,12.639,0,0,0,1.032,1.477,2.429,2.429,0,0,0,1.1.765,5.42,5.42,0,0,0,1.672.213h.356v4.947h-.356Z" transform="translate(-103.597 -651.461)" fill="#09183d"/>
      <path id="Path_91554" data-name="Path 91554" d="M272.348,806.26h.357v4.947h-.357q-1.068,0-1.068-2.492,0-2.455,1.068-2.455" transform="translate(-251.555 -784.026)" fill="#09183d"/>
      <path id="Path_91555" data-name="Path 91555" d="M285.97,713.609v-4.947h9.178a14.542,14.542,0,0,0,.374-1.619,15.638,15.638,0,0,0,.213-1.922,17.443,17.443,0,0,0-.018-2.082l5.944-2.029q-.464,2.278-.908,3.951a26.152,26.152,0,0,1-1,3.043,24.31,24.31,0,0,1-1.282,2.686q-.731,1.316-1.8,2.919H285.97Z" transform="translate(-265.177 -686.429)" fill="#09183d"/>
      <path id="Path_91556" data-name="Path 91556" d="M406.649,713.619a16.793,16.793,0,0,1-4.147-.445,13.014,13.014,0,0,1-2.829-1.032,10.749,10.749,0,0,1-1.673-1.05l2.029-3.559a8.679,8.679,0,0,0,2.26.836,12.548,12.548,0,0,0,2.866.3H409a8.6,8.6,0,0,0,.375-1.495,16.52,16.52,0,0,0,.213-1.992q.052-1.069.018-2.136l5.979-2.029q-.5,2.278-.961,3.951a31.5,31.5,0,0,1-1,3.043,20.456,20.456,0,0,1-1.28,2.686q-.747,1.316-1.815,2.919h-3.881Z" transform="translate(-369.061 -686.438)" fill="#09183d"/>
      <path id="Path_91557" data-name="Path 91557" d="M575.973,686.839a14.842,14.842,0,0,1-3.9-.445,12.4,12.4,0,0,1-2.74-1.067q-1.121-.622-1.976-1.193l2.634-3.167a10.233,10.233,0,0,0,4.663.926h4.52q-.286-.961-.6-1.832t-.73-1.834q-.409-.961-1.014-2.206l5.8-3.88q.285,2.172.463,4.538a32.25,32.25,0,0,1-.018,4.893,23.962,23.962,0,0,1-1.049,5.267h-6.052Z" transform="translate(-526.106 -659.658)" fill="#09183d"/>
      <path id="Path_91558" data-name="Path 91558" d="M737.324,800.775c-1.163,0-7.547-.094-8.484-.284a11.689,11.689,0,0,1-2.474-.766q-1.068-.48-1.886-.942l1.957-3.772a5.346,5.346,0,0,0,.926.355q.5.143,1.05.25a11.435,11.435,0,0,0,1.156.16c.4.035.818.054,1.246.054h6.724v4.946h-.214Z" transform="translate(-671.802 -773.594)" fill="#09183d"/>
      <path id="Path_91559" data-name="Path 91559" d="M822.422,806.251h.356V811.2h-.356c-.712,0-6.4-.83-6.4-2.491s5.69-2.456,6.4-2.456" transform="translate(-756.686 -784.017)" fill="#09183d"/>
      <path id="Path_91560" data-name="Path 91560" d="M899.682,912.605l-3.452-3.487,3.239-3.488,3.452,3.488Z" transform="translate(-831.064 -876.171)" fill="#09183d"/>
      <path id="Path_91561" data-name="Path 91561" d="M904.06,665.965v-4.947h6.3a10.4,10.4,0,0,0-.978-3.327,26.213,26.213,0,0,0-2.01-3.471l4.484-4.591a30.923,30.923,0,0,1,1.85,4.521,18.321,18.321,0,0,1,.837,5.32,18.505,18.505,0,0,1-1.228,6.5H904.06Z" transform="translate(-838.324 -638.785)" fill="#09183d"/>
      <path id="Path_91562" data-name="Path 91562" d="M984.853,912.605l-3.453-3.487,3.31-3.488,3.453,3.488Z" transform="translate(-910.041 -876.171)" fill="#09183d"/>
      <path id="Path_91563" data-name="Path 91563" d="M426.747,505.181a2.5,2.5,0,0,1-1.949-.849,3.114,3.114,0,0,1-.758-2.157v-1.7h1.487v1.7a1.716,1.716,0,0,0,.327,1.115,1.087,1.087,0,0,0,.892.4q1.19,0,1.19-1.368v-1.1h1.487v1.1a2.926,2.926,0,0,1-.729,2.067,2.525,2.525,0,0,1-1.949.789Z" transform="translate(-393.207 -500.48)" fill="#09183d"/>
      <path id="Path_91564" data-name="Path 91564" d="M443.016,574.95l.417,1.606-7.526,1.963-.417-1.606Z" transform="translate(-403.825 -569.535)" fill="#09183d"/>
      <path id="Path_91565" data-name="Path 91565" d="M480.307,505.19a2.523,2.523,0,0,1-1.949-.789,2.92,2.92,0,0,1-.729-2.067v-1.1h1.487v1.1q0,1.369,1.19,1.368a1.092,1.092,0,0,0,.893-.4,1.722,1.722,0,0,0,.327-1.115v-1.7h1.488v1.7a3.15,3.15,0,0,1-.744,2.157,2.484,2.484,0,0,1-1.963.849Z" transform="translate(-442.901 -500.489)" fill="#09183d"/>
      <g id="Group_109417" data-name="Group 109417" transform="translate(66.339 5.368)" style="isolation: isolate">
        <path id="Path_91566" data-name="Path 91566" d="M919.841,574.31l.414,1.6-7.481,1.951-.414-1.6Z" transform="translate(-912.36 -574.31)" fill="#09183d"/>
      </g>
      <path id="Path_91567" data-name="Path 91567" d="M1.752,609.458a1.714,1.714,0,0,1-.876-.231,1.787,1.787,0,0,1-.637-.622A1.619,1.619,0,0,1,0,607.744a1.642,1.642,0,0,1,.239-.868,1.753,1.753,0,0,1,.637-.618,1.732,1.732,0,0,1,.876-.228,1.74,1.74,0,0,1,.679.132,1.812,1.812,0,0,1,.558.368,1.72,1.72,0,0,1,.38.546,1.7,1.7,0,0,1-.1,1.529,1.754,1.754,0,0,1-.633.622,1.727,1.727,0,0,1-.884.231Zm0-.265A1.426,1.426,0,0,0,2.5,609a1.55,1.55,0,0,0,.538-.527,1.344,1.344,0,0,0,.205-.725,1.373,1.373,0,0,0-.205-.735,1.521,1.521,0,0,0-.538-.519,1.459,1.459,0,0,0-.743-.194,1.452,1.452,0,0,0-.743.194,1.521,1.521,0,0,0-.538.519,1.352,1.352,0,0,0-.2.735,1.324,1.324,0,0,0,.2.725,1.556,1.556,0,0,0,.538.527A1.426,1.426,0,0,0,1.752,609.193Zm-.561-.569v-1.813h.667a.562.562,0,0,1,.414.155.552.552,0,0,1,.156.406.486.486,0,0,1-.163.375.578.578,0,0,1-.406.148H1.351l.084-.045v.774H1.192Zm.243-.888-.076-.046h.425a.428.428,0,0,0,.288-.091.289.289,0,0,0,.106-.228.307.307,0,0,0-.1-.243.418.418,0,0,0-.284-.083h-.47l.106-.061v.751Zm.675.888-.3-.781.228-.069.341.85Z" transform="translate(0 -598.355)" fill="#041840"/>
    </g>
  </g>
</svg>
